<svg width="244" height="26" viewBox="0 0 244 26" fill="none" xmlns="http://www.w3.org/2000/svg">
<g clip-path="url(#clip0_1054_413)">
<path d="M7.92407 15.0192C8.00278 15.0979 8.13228 15.0979 8.21099 15.0192L10.7958 12.4344L12.9819 14.6231C13.0606 14.7018 13.1901 14.7018 13.2688 14.6231L19.0147 8.87212C19.0934 8.79341 19.0934 8.66392 19.0147 8.58521L18.0803 7.65083C18.0016 7.57212 17.8721 7.57212 17.7934 7.65083L13.1266 12.3227L10.9405 10.134C10.8618 10.0553 10.7323 10.0553 10.6536 10.134L6.9897 13.7979C6.91099 13.8766 6.91099 14.0061 6.9897 14.0848L7.92407 15.0192Z" fill="#1B99D4"/>
<path d="M22.9531 4.0625H13.9141V2.4375C13.9141 2.32578 13.8227 2.23438 13.7109 2.23438H12.2891C12.1773 2.23438 12.0859 2.32578 12.0859 2.4375V4.0625H3.04688C2.59746 4.0625 2.23438 4.42559 2.23438 4.875V18.0781C2.23438 18.5275 2.59746 18.8906 3.04688 18.8906H12.0961V19.7031L7.91172 22.4479C7.81777 22.5088 7.79238 22.6332 7.85332 22.7271L8.62266 23.9256V23.9281C8.68359 24.0221 8.81055 24.0475 8.90449 23.9865L13 21.3002L17.0955 23.9865C17.1895 24.0475 17.3164 24.0221 17.3773 23.9281V23.9256L18.1467 22.7271C18.2076 22.6332 18.1797 22.5088 18.0883 22.4479L13.9141 19.7107V18.8906H22.9531C23.4025 18.8906 23.7656 18.5275 23.7656 18.0781V4.875C23.7656 4.42559 23.4025 4.0625 22.9531 4.0625ZM21.9375 17.0625H4.0625V5.89062H21.9375V17.0625Z" fill="#1B99D4"/>
</g>
<path d="M38.2969 7.125L41.0312 11.4844L43.7656 7.125H45.5234L41.9297 12.7578L45.6094 18.5H43.8359L41.0312 14.0547L38.2266 18.5H36.4531L40.1328 12.7578L36.5391 7.125H38.2969ZM46.5781 14.3672V14.1875C46.5781 13.5781 46.6667 13.013 46.8438 12.4922C47.0208 11.9661 47.276 11.5104 47.6094 11.125C47.9427 10.7344 48.3464 10.4323 48.8203 10.2188C49.2943 10 49.8255 9.89062 50.4141 9.89062C51.0078 9.89062 51.5417 10 52.0156 10.2188C52.4948 10.4323 52.901 10.7344 53.2344 11.125C53.5729 11.5104 53.8307 11.9661 54.0078 12.4922C54.1849 13.013 54.2734 13.5781 54.2734 14.1875V14.3672C54.2734 14.9766 54.1849 15.5417 54.0078 16.0625C53.8307 16.5833 53.5729 17.0391 53.2344 17.4297C52.901 17.8151 52.4974 18.1172 52.0234 18.3359C51.5547 18.5495 51.0234 18.6562 50.4297 18.6562C49.8359 18.6562 49.3021 18.5495 48.8281 18.3359C48.3542 18.1172 47.9479 17.8151 47.6094 17.4297C47.276 17.0391 47.0208 16.5833 46.8438 16.0625C46.6667 15.5417 46.5781 14.9766 46.5781 14.3672ZM48.0234 14.1875V14.3672C48.0234 14.7891 48.0729 15.1875 48.1719 15.5625C48.2708 15.9323 48.4193 16.2604 48.6172 16.5469C48.8203 16.8333 49.0729 17.0599 49.375 17.2266C49.6771 17.388 50.0286 17.4688 50.4297 17.4688C50.8255 17.4688 51.1719 17.388 51.4688 17.2266C51.7708 17.0599 52.0208 16.8333 52.2188 16.5469C52.4167 16.2604 52.5651 15.9323 52.6641 15.5625C52.7682 15.1875 52.8203 14.7891 52.8203 14.3672V14.1875C52.8203 13.7708 52.7682 13.3776 52.6641 13.0078C52.5651 12.6328 52.4141 12.3021 52.2109 12.0156C52.013 11.724 51.763 11.4948 51.4609 11.3281C51.1641 11.1615 50.8151 11.0781 50.4141 11.0781C50.0182 11.0781 49.6693 11.1615 49.3672 11.3281C49.0703 11.4948 48.8203 11.724 48.6172 12.0156C48.4193 12.3021 48.2708 12.6328 48.1719 13.0078C48.0729 13.3776 48.0234 13.7708 48.0234 14.1875ZM57.5312 11.6719V21.75H56.0781V10.0469H57.4062L57.5312 11.6719ZM63.2266 14.2031V14.3672C63.2266 14.9818 63.1536 15.5521 63.0078 16.0781C62.862 16.599 62.6484 17.0521 62.3672 17.4375C62.0911 17.8229 61.75 18.1224 61.3438 18.3359C60.9375 18.5495 60.4714 18.6562 59.9453 18.6562C59.4089 18.6562 58.9349 18.5677 58.5234 18.3906C58.112 18.2135 57.763 17.9557 57.4766 17.6172C57.1901 17.2786 56.9609 16.8724 56.7891 16.3984C56.6224 15.9245 56.5078 15.3906 56.4453 14.7969V13.9219C56.5078 13.2969 56.625 12.737 56.7969 12.2422C56.9688 11.7474 57.1953 11.3255 57.4766 10.9766C57.763 10.6224 58.1094 10.3542 58.5156 10.1719C58.9219 9.98438 59.3906 9.89062 59.9219 9.89062C60.4531 9.89062 60.9245 9.99479 61.3359 10.2031C61.7474 10.4062 62.0938 10.6979 62.375 11.0781C62.6562 11.4583 62.8672 11.9141 63.0078 12.4453C63.1536 12.9714 63.2266 13.5573 63.2266 14.2031ZM61.7734 14.3672V14.2031C61.7734 13.7812 61.7292 13.3854 61.6406 13.0156C61.5521 12.6406 61.4141 12.3125 61.2266 12.0312C61.0443 11.7448 60.8099 11.5208 60.5234 11.3594C60.237 11.1927 59.8958 11.1094 59.5 11.1094C59.1354 11.1094 58.8177 11.1719 58.5469 11.2969C58.2812 11.4219 58.0547 11.5911 57.8672 11.8047C57.6797 12.013 57.526 12.2526 57.4062 12.5234C57.2917 12.7891 57.2057 13.0651 57.1484 13.3516V15.375C57.2526 15.7396 57.3984 16.0833 57.5859 16.4062C57.7734 16.724 58.0234 16.9818 58.3359 17.1797C58.6484 17.3724 59.0417 17.4688 59.5156 17.4688C59.9062 17.4688 60.2422 17.388 60.5234 17.2266C60.8099 17.0599 61.0443 16.8333 61.2266 16.5469C61.4141 16.2604 61.5521 15.9323 61.6406 15.5625C61.7292 15.1875 61.7734 14.7891 61.7734 14.3672ZM64.6875 14.3672V14.1875C64.6875 13.5781 64.776 13.013 64.9531 12.4922C65.1302 11.9661 65.3854 11.5104 65.7188 11.125C66.0521 10.7344 66.4557 10.4323 66.9297 10.2188C67.4036 10 67.9349 9.89062 68.5234 9.89062C69.1172 9.89062 69.651 10 70.125 10.2188C70.6042 10.4323 71.0104 10.7344 71.3438 11.125C71.6823 11.5104 71.9401 11.9661 72.1172 12.4922C72.2943 13.013 72.3828 13.5781 72.3828 14.1875V14.3672C72.3828 14.9766 72.2943 15.5417 72.1172 16.0625C71.9401 16.5833 71.6823 17.0391 71.3438 17.4297C71.0104 17.8151 70.6068 18.1172 70.1328 18.3359C69.6641 18.5495 69.1328 18.6562 68.5391 18.6562C67.9453 18.6562 67.4115 18.5495 66.9375 18.3359C66.4635 18.1172 66.0573 17.8151 65.7188 17.4297C65.3854 17.0391 65.1302 16.5833 64.9531 16.0625C64.776 15.5417 64.6875 14.9766 64.6875 14.3672ZM66.1328 14.1875V14.3672C66.1328 14.7891 66.1823 15.1875 66.2812 15.5625C66.3802 15.9323 66.5286 16.2604 66.7266 16.5469C66.9297 16.8333 67.1823 17.0599 67.4844 17.2266C67.7865 17.388 68.138 17.4688 68.5391 17.4688C68.9349 17.4688 69.2812 17.388 69.5781 17.2266C69.8802 17.0599 70.1302 16.8333 70.3281 16.5469C70.526 16.2604 70.6745 15.9323 70.7734 15.5625C70.8776 15.1875 70.9297 14.7891 70.9297 14.3672V14.1875C70.9297 13.7708 70.8776 13.3776 70.7734 13.0078C70.6745 12.6328 70.5234 12.3021 70.3203 12.0156C70.1224 11.724 69.8724 11.4948 69.5703 11.3281C69.2734 11.1615 68.9245 11.0781 68.5234 11.0781C68.1276 11.0781 67.7786 11.1615 67.4766 11.3281C67.1797 11.4948 66.9297 11.724 66.7266 12.0156C66.5286 12.3021 66.3802 12.6328 66.2812 13.0078C66.1823 13.3776 66.1328 13.7708 66.1328 14.1875ZM74.3203 10.0469H75.7656V17.3125H78.8594V10.0469H80.3125V17.3125H83.3984V10.0469H84.8438V18.5H74.3203V10.0469ZM86.7656 14.3672V14.1875C86.7656 13.5781 86.8542 13.013 87.0312 12.4922C87.2083 11.9661 87.4635 11.5104 87.7969 11.125C88.1302 10.7344 88.5339 10.4323 89.0078 10.2188C89.4818 10 90.013 9.89062 90.6016 9.89062C91.1953 9.89062 91.7292 10 92.2031 10.2188C92.6823 10.4323 93.0885 10.7344 93.4219 11.125C93.7604 11.5104 94.0182 11.9661 94.1953 12.4922C94.3724 13.013 94.4609 13.5781 94.4609 14.1875V14.3672C94.4609 14.9766 94.3724 15.5417 94.1953 16.0625C94.0182 16.5833 93.7604 17.0391 93.4219 17.4297C93.0885 17.8151 92.6849 18.1172 92.2109 18.3359C91.7422 18.5495 91.2109 18.6562 90.6172 18.6562C90.0234 18.6562 89.4896 18.5495 89.0156 18.3359C88.5417 18.1172 88.1354 17.8151 87.7969 17.4297C87.4635 17.0391 87.2083 16.5833 87.0312 16.0625C86.8542 15.5417 86.7656 14.9766 86.7656 14.3672ZM88.2109 14.1875V14.3672C88.2109 14.7891 88.2604 15.1875 88.3594 15.5625C88.4583 15.9323 88.6068 16.2604 88.8047 16.5469C89.0078 16.8333 89.2604 17.0599 89.5625 17.2266C89.8646 17.388 90.2161 17.4688 90.6172 17.4688C91.013 17.4688 91.3594 17.388 91.6562 17.2266C91.9583 17.0599 92.2083 16.8333 92.4062 16.5469C92.6042 16.2604 92.7526 15.9323 92.8516 15.5625C92.9557 15.1875 93.0078 14.7891 93.0078 14.3672V14.1875C93.0078 13.7708 92.9557 13.3776 92.8516 13.0078C92.7526 12.6328 92.6016 12.3021 92.3984 12.0156C92.2005 11.724 91.9505 11.4948 91.6484 11.3281C91.3516 11.1615 91.0026 11.0781 90.6016 11.0781C90.2057 11.0781 89.8568 11.1615 89.5547 11.3281C89.2578 11.4948 89.0078 11.724 88.8047 12.0156C88.6068 12.3021 88.4583 12.6328 88.3594 13.0078C88.2604 13.3776 88.2109 13.7708 88.2109 14.1875ZM99.7812 18.6562C99.1927 18.6562 98.6589 18.5573 98.1797 18.3594C97.7057 18.1562 97.2969 17.8724 96.9531 17.5078C96.6146 17.1432 96.3542 16.7109 96.1719 16.2109C95.9896 15.7109 95.8984 15.1641 95.8984 14.5703V14.2422C95.8984 13.5547 96 12.9427 96.2031 12.4062C96.4062 11.8646 96.6823 11.4062 97.0312 11.0312C97.3802 10.6562 97.776 10.3724 98.2188 10.1797C98.6615 9.98698 99.1198 9.89062 99.5938 9.89062C100.198 9.89062 100.719 9.99479 101.156 10.2031C101.599 10.4115 101.961 10.7031 102.242 11.0781C102.523 11.4479 102.732 11.8854 102.867 12.3906C103.003 12.8906 103.07 13.4375 103.07 14.0312V14.6797H96.7578V13.5H101.625V13.3906C101.604 13.0156 101.526 12.651 101.391 12.2969C101.26 11.9427 101.052 11.651 100.766 11.4219C100.479 11.1927 100.089 11.0781 99.5938 11.0781C99.2656 11.0781 98.9635 11.1484 98.6875 11.2891C98.4115 11.4245 98.1745 11.6276 97.9766 11.8984C97.7786 12.1693 97.625 12.5 97.5156 12.8906C97.4062 13.2812 97.3516 13.7318 97.3516 14.2422V14.5703C97.3516 14.9714 97.4062 15.349 97.5156 15.7031C97.6302 16.0521 97.7943 16.3594 98.0078 16.625C98.2266 16.8906 98.4896 17.099 98.7969 17.25C99.1094 17.401 99.4635 17.4766 99.8594 17.4766C100.37 17.4766 100.802 17.3724 101.156 17.1641C101.51 16.9557 101.82 16.6771 102.086 16.3281L102.961 17.0234C102.779 17.2995 102.547 17.5625 102.266 17.8125C101.984 18.0625 101.638 18.2656 101.227 18.4219C100.82 18.5781 100.339 18.6562 99.7812 18.6562ZM114.359 10.0469V11.2422H110.086V10.0469H114.359ZM110.297 10.0469V18.5H108.852V10.0469H110.297ZM115.641 10.0469V18.5H114.188V10.0469H115.641ZM119.406 11.6719V21.75H117.953V10.0469H119.281L119.406 11.6719ZM125.102 14.2031V14.3672C125.102 14.9818 125.029 15.5521 124.883 16.0781C124.737 16.599 124.523 17.0521 124.242 17.4375C123.966 17.8229 123.625 18.1224 123.219 18.3359C122.812 18.5495 122.346 18.6562 121.82 18.6562C121.284 18.6562 120.81 18.5677 120.398 18.3906C119.987 18.2135 119.638 17.9557 119.352 17.6172C119.065 17.2786 118.836 16.8724 118.664 16.3984C118.497 15.9245 118.383 15.3906 118.32 14.7969V13.9219C118.383 13.2969 118.5 12.737 118.672 12.2422C118.844 11.7474 119.07 11.3255 119.352 10.9766C119.638 10.6224 119.984 10.3542 120.391 10.1719C120.797 9.98438 121.266 9.89062 121.797 9.89062C122.328 9.89062 122.799 9.99479 123.211 10.2031C123.622 10.4062 123.969 10.6979 124.25 11.0781C124.531 11.4583 124.742 11.9141 124.883 12.4453C125.029 12.9714 125.102 13.5573 125.102 14.2031ZM123.648 14.3672V14.2031C123.648 13.7812 123.604 13.3854 123.516 13.0156C123.427 12.6406 123.289 12.3125 123.102 12.0312C122.919 11.7448 122.685 11.5208 122.398 11.3594C122.112 11.1927 121.771 11.1094 121.375 11.1094C121.01 11.1094 120.693 11.1719 120.422 11.2969C120.156 11.4219 119.93 11.5911 119.742 11.8047C119.555 12.013 119.401 12.2526 119.281 12.5234C119.167 12.7891 119.081 13.0651 119.023 13.3516V15.375C119.128 15.7396 119.273 16.0833 119.461 16.4062C119.648 16.724 119.898 16.9818 120.211 17.1797C120.523 17.3724 120.917 17.4688 121.391 17.4688C121.781 17.4688 122.117 17.388 122.398 17.2266C122.685 17.0599 122.919 16.8333 123.102 16.5469C123.289 16.2604 123.427 15.9323 123.516 15.5625C123.604 15.1875 123.648 14.7891 123.648 14.3672ZM126.562 14.3672V14.1875C126.562 13.5781 126.651 13.013 126.828 12.4922C127.005 11.9661 127.26 11.5104 127.594 11.125C127.927 10.7344 128.331 10.4323 128.805 10.2188C129.279 10 129.81 9.89062 130.398 9.89062C130.992 9.89062 131.526 10 132 10.2188C132.479 10.4323 132.885 10.7344 133.219 11.125C133.557 11.5104 133.815 11.9661 133.992 12.4922C134.169 13.013 134.258 13.5781 134.258 14.1875V14.3672C134.258 14.9766 134.169 15.5417 133.992 16.0625C133.815 16.5833 133.557 17.0391 133.219 17.4297C132.885 17.8151 132.482 18.1172 132.008 18.3359C131.539 18.5495 131.008 18.6562 130.414 18.6562C129.82 18.6562 129.286 18.5495 128.812 18.3359C128.339 18.1172 127.932 17.8151 127.594 17.4297C127.26 17.0391 127.005 16.5833 126.828 16.0625C126.651 15.5417 126.562 14.9766 126.562 14.3672ZM128.008 14.1875V14.3672C128.008 14.7891 128.057 15.1875 128.156 15.5625C128.255 15.9323 128.404 16.2604 128.602 16.5469C128.805 16.8333 129.057 17.0599 129.359 17.2266C129.661 17.388 130.013 17.4688 130.414 17.4688C130.81 17.4688 131.156 17.388 131.453 17.2266C131.755 17.0599 132.005 16.8333 132.203 16.5469C132.401 16.2604 132.549 15.9323 132.648 15.5625C132.753 15.1875 132.805 14.7891 132.805 14.3672V14.1875C132.805 13.7708 132.753 13.3776 132.648 13.0078C132.549 12.6328 132.398 12.3021 132.195 12.0156C131.997 11.724 131.747 11.4948 131.445 11.3281C131.148 11.1615 130.799 11.0781 130.398 11.0781C130.003 11.0781 129.654 11.1615 129.352 11.3281C129.055 11.4948 128.805 11.724 128.602 12.0156C128.404 12.3021 128.255 12.6328 128.156 13.0078C128.057 13.3776 128.008 13.7708 128.008 14.1875ZM137.031 10.0469H138.477L138.352 13.2109C138.32 14.013 138.229 14.7057 138.078 15.2891C137.927 15.8724 137.734 16.3698 137.5 16.7812C137.266 17.1875 137.003 17.5286 136.711 17.8047C136.424 18.0807 136.128 18.3125 135.82 18.5H135.102L135.141 17.3203L135.438 17.3125C135.609 17.1094 135.776 16.901 135.938 16.6875C136.099 16.4688 136.247 16.2109 136.383 15.9141C136.518 15.612 136.63 15.2448 136.719 14.8125C136.812 14.375 136.872 13.8411 136.898 13.2109L137.031 10.0469ZM137.391 10.0469H142.477V18.5H141.031V11.3828H137.391V10.0469ZM134.773 17.3125H143.562V20.9922H142.117V18.5H136.219V20.9922H134.766L134.773 17.3125ZM149.133 14.7812H146.359L146.344 13.625H148.609C149.057 13.625 149.43 13.5807 149.727 13.4922C150.029 13.4036 150.255 13.2708 150.406 13.0938C150.557 12.9167 150.633 12.6979 150.633 12.4375C150.633 12.2344 150.589 12.0573 150.5 11.9062C150.417 11.75 150.289 11.6224 150.117 11.5234C149.945 11.4193 149.732 11.3438 149.477 11.2969C149.227 11.2448 148.932 11.2188 148.594 11.2188H146.742V18.5H145.297V10.0469H148.594C149.13 10.0469 149.612 10.0938 150.039 10.1875C150.471 10.2812 150.839 10.4245 151.141 10.6172C151.448 10.8047 151.682 11.0443 151.844 11.3359C152.005 11.6276 152.086 11.9714 152.086 12.3672C152.086 12.6224 152.034 12.8646 151.93 13.0938C151.826 13.3229 151.672 13.526 151.469 13.7031C151.266 13.8802 151.016 14.026 150.719 14.1406C150.422 14.25 150.081 14.3203 149.695 14.3516L149.133 14.7812ZM149.133 18.5H145.836L146.555 17.3281H149.133C149.534 17.3281 149.867 17.2786 150.133 17.1797C150.398 17.0755 150.596 16.9297 150.727 16.7422C150.862 16.5495 150.93 16.3203 150.93 16.0547C150.93 15.7891 150.862 15.5625 150.727 15.375C150.596 15.1823 150.398 15.0365 150.133 14.9375C149.867 14.8333 149.534 14.7812 149.133 14.7812H146.938L146.953 13.625H149.695L150.219 14.0625C150.682 14.099 151.076 14.2135 151.398 14.4062C151.721 14.599 151.966 14.8438 152.133 15.1406C152.299 15.4323 152.383 15.75 152.383 16.0938C152.383 16.4896 152.307 16.8385 152.156 17.1406C152.01 17.4427 151.797 17.6953 151.516 17.8984C151.234 18.0964 150.893 18.2474 150.492 18.3516C150.091 18.4505 149.638 18.5 149.133 18.5ZM157.828 18.6562C157.24 18.6562 156.706 18.5573 156.227 18.3594C155.753 18.1562 155.344 17.8724 155 17.5078C154.661 17.1432 154.401 16.7109 154.219 16.2109C154.036 15.7109 153.945 15.1641 153.945 14.5703V14.2422C153.945 13.5547 154.047 12.9427 154.25 12.4062C154.453 11.8646 154.729 11.4062 155.078 11.0312C155.427 10.6562 155.823 10.3724 156.266 10.1797C156.708 9.98698 157.167 9.89062 157.641 9.89062C158.245 9.89062 158.766 9.99479 159.203 10.2031C159.646 10.4115 160.008 10.7031 160.289 11.0781C160.57 11.4479 160.779 11.8854 160.914 12.3906C161.049 12.8906 161.117 13.4375 161.117 14.0312V14.6797H154.805V13.5H159.672V13.3906C159.651 13.0156 159.573 12.651 159.438 12.2969C159.307 11.9427 159.099 11.651 158.812 11.4219C158.526 11.1927 158.135 11.0781 157.641 11.0781C157.312 11.0781 157.01 11.1484 156.734 11.2891C156.458 11.4245 156.221 11.6276 156.023 11.8984C155.826 12.1693 155.672 12.5 155.562 12.8906C155.453 13.2812 155.398 13.7318 155.398 14.2422V14.5703C155.398 14.9714 155.453 15.349 155.562 15.7031C155.677 16.0521 155.841 16.3594 156.055 16.625C156.273 16.8906 156.536 17.099 156.844 17.25C157.156 17.401 157.51 17.4766 157.906 17.4766C158.417 17.4766 158.849 17.3724 159.203 17.1641C159.557 16.9557 159.867 16.6771 160.133 16.3281L161.008 17.0234C160.826 17.2995 160.594 17.5625 160.312 17.8125C160.031 18.0625 159.685 18.2656 159.273 18.4219C158.867 18.5781 158.385 18.6562 157.828 18.6562ZM165.367 14.8203L162.164 10.0469H163.906L166.094 13.5469H167.781L167.57 14.8203H165.367ZM166.156 14.6719L163.703 18.5H161.875L165.242 13.625L166.156 14.6719ZM168.523 10.0469V18.5H167.078V10.0469H168.523ZM173.453 10.0469L170.25 14.8203H168.047L167.82 13.5469H169.516L171.703 10.0469H173.453ZM171.906 18.5L169.445 14.6719L170.375 13.625L173.734 18.5H171.906ZM178.422 18.6562C177.833 18.6562 177.299 18.5573 176.82 18.3594C176.346 18.1562 175.938 17.8724 175.594 17.5078C175.255 17.1432 174.995 16.7109 174.812 16.2109C174.63 15.7109 174.539 15.1641 174.539 14.5703V14.2422C174.539 13.5547 174.641 12.9427 174.844 12.4062C175.047 11.8646 175.323 11.4062 175.672 11.0312C176.021 10.6562 176.417 10.3724 176.859 10.1797C177.302 9.98698 177.76 9.89062 178.234 9.89062C178.839 9.89062 179.359 9.99479 179.797 10.2031C180.24 10.4115 180.602 10.7031 180.883 11.0781C181.164 11.4479 181.372 11.8854 181.508 12.3906C181.643 12.8906 181.711 13.4375 181.711 14.0312V14.6797H175.398V13.5H180.266V13.3906C180.245 13.0156 180.167 12.651 180.031 12.2969C179.901 11.9427 179.693 11.651 179.406 11.4219C179.12 11.1927 178.729 11.0781 178.234 11.0781C177.906 11.0781 177.604 11.1484 177.328 11.2891C177.052 11.4245 176.815 11.6276 176.617 11.8984C176.419 12.1693 176.266 12.5 176.156 12.8906C176.047 13.2812 175.992 13.7318 175.992 14.2422V14.5703C175.992 14.9714 176.047 15.349 176.156 15.7031C176.271 16.0521 176.435 16.3594 176.648 16.625C176.867 16.8906 177.13 17.099 177.438 17.25C177.75 17.401 178.104 17.4766 178.5 17.4766C179.01 17.4766 179.443 17.3724 179.797 17.1641C180.151 16.9557 180.461 16.6771 180.727 16.3281L181.602 17.0234C181.419 17.2995 181.188 17.5625 180.906 17.8125C180.625 18.0625 180.279 18.2656 179.867 18.4219C179.461 18.5781 178.979 18.6562 178.422 18.6562ZM189.133 13.7109V14.8828H184.664V13.7109H189.133ZM184.969 10.0469V18.5H183.523V10.0469H184.969ZM190.305 10.0469V18.5H188.852V10.0469H190.305ZM194.195 16.2109L198.094 10.0469H199.547V18.5H198.094V12.3359L194.195 18.5H192.758V10.0469H194.195V16.2109ZM205.375 18.6562C204.786 18.6562 204.253 18.5573 203.773 18.3594C203.299 18.1562 202.891 17.8724 202.547 17.5078C202.208 17.1432 201.948 16.7109 201.766 16.2109C201.583 15.7109 201.492 15.1641 201.492 14.5703V14.2422C201.492 13.5547 201.594 12.9427 201.797 12.4062C202 11.8646 202.276 11.4062 202.625 11.0312C202.974 10.6562 203.37 10.3724 203.812 10.1797C204.255 9.98698 204.714 9.89062 205.188 9.89062C205.792 9.89062 206.312 9.99479 206.75 10.2031C207.193 10.4115 207.555 10.7031 207.836 11.0781C208.117 11.4479 208.326 11.8854 208.461 12.3906C208.596 12.8906 208.664 13.4375 208.664 14.0312V14.6797H202.352V13.5H207.219V13.3906C207.198 13.0156 207.12 12.651 206.984 12.2969C206.854 11.9427 206.646 11.651 206.359 11.4219C206.073 11.1927 205.682 11.0781 205.188 11.0781C204.859 11.0781 204.557 11.1484 204.281 11.2891C204.005 11.4245 203.768 11.6276 203.57 11.8984C203.372 12.1693 203.219 12.5 203.109 12.8906C203 13.2812 202.945 13.7318 202.945 14.2422V14.5703C202.945 14.9714 203 15.349 203.109 15.7031C203.224 16.0521 203.388 16.3594 203.602 16.625C203.82 16.8906 204.083 17.099 204.391 17.25C204.703 17.401 205.057 17.4766 205.453 17.4766C205.964 17.4766 206.396 17.3724 206.75 17.1641C207.104 16.9557 207.414 16.6771 207.68 16.3281L208.555 17.0234C208.372 17.2995 208.141 17.5625 207.859 17.8125C207.578 18.0625 207.232 18.2656 206.82 18.4219C206.414 18.5781 205.932 18.6562 205.375 18.6562Z" fill="#646464"/>
<defs>
<clipPath id="clip0_1054_413">
<rect width="26" height="26" fill="white"/>
</clipPath>
</defs>
</svg>
