<svg width="70" height="70" viewBox="0 0 70 70" fill="none" xmlns="http://www.w3.org/2000/svg">
<rect width="70" height="70" rx="35" fill="#1B99D4"/>
<path d="M45.7817 51.4387C46.0047 48.761 46.051 40.2261 38.2283 36.4384C41.4818 34.8609 43.7318 32.2782 44.9269 28.7434C45.0374 28.4162 44.8619 28.0616 44.535 27.9511C44.2064 27.8404 43.8536 28.0161 43.7428 28.343C42.5123 31.9825 40.0471 34.5091 36.4152 35.8524C36.1702 35.9434 36.0072 36.1772 36.0072 36.4387C36.0072 36.7002 36.1702 36.934 36.4152 37.0249C44.9219 40.1723 44.7508 48.981 44.527 51.4387H42.642C41.9256 44.2723 36.9334 42.1825 35.2983 41.6889V37.8001C35.2983 37.4549 35.0184 37.1751 34.6733 37.1751C34.3281 37.1751 34.0483 37.4549 34.0483 37.8001V41.6889C32.4132 42.1825 27.421 44.2723 26.7046 51.4387H24.8207C24.7429 50.5737 24.6648 48.8004 25.0441 46.7179C25.106 46.3783 24.8808 46.053 24.5411 45.991C24.2006 45.9312 23.8759 46.1546 23.8142 46.4939C23.4269 48.6204 23.4861 50.4644 23.5654 51.4387C22.5084 51.4022 21.6203 52.2544 21.6224 53.3137C21.6224 54.3476 22.4635 55.1887 23.4974 55.1887H45.8491C46.8831 55.1887 47.7241 54.3476 47.7241 53.3137C47.7241 51.4387 45.7817 51.4387 45.7817 51.4387ZM34.673 42.8092C35.5201 43 40.6373 44.4383 41.3896 51.4387H27.957C28.7095 44.4349 33.8313 42.9987 34.673 42.8092ZM45.8491 53.9387H23.4974C23.1529 53.9387 22.8724 53.6582 22.8724 53.3137C22.8724 52.9691 23.1529 52.6887 23.4974 52.6887H45.8491C46.1937 52.6887 46.4741 52.9691 46.4741 53.3137C46.4741 53.6582 46.1937 53.9387 45.8491 53.9387Z" fill="white"/>
<path d="M23.5674 21.4395C23.3872 23.7982 23.2749 32.6133 31.1207 36.4385C27.819 38.0383 25.5519 40.6707 24.3709 44.2816C24.2637 44.6099 24.4426 44.9627 24.7706 45.0701C25.0901 45.1772 25.4524 45.0013 25.5592 44.6704C26.7729 40.9585 29.2531 38.3865 32.9313 37.0257C33.1764 36.9348 33.3394 36.701 33.3394 36.4395C33.3394 36.1779 33.1764 35.9442 32.9313 35.8532C24.4251 32.7063 24.5936 23.9098 24.8197 21.4395H44.5264C44.6 22.2814 44.6805 24.0873 44.3019 26.1636C44.2399 26.5029 44.4652 26.8285 44.8048 26.8905C45.1365 26.9529 45.4715 26.7294 45.5317 26.3876C45.9201 24.2578 45.8624 22.4231 45.7815 21.4395C46.8384 21.4758 47.7263 20.6236 47.7241 19.5645C47.7241 18.5305 46.8831 17.6895 45.8491 17.6895H23.4974C22.4635 17.6895 21.6224 18.5305 21.6224 19.5645C21.6224 21.5106 23.5674 21.4395 23.5674 21.4395ZM23.4974 18.9395H45.8491C46.1937 18.9395 46.4741 19.2199 46.4741 19.5645C46.4741 19.909 46.1937 20.1895 45.8491 20.1895H23.4974C23.1529 20.1895 22.8724 19.909 22.8724 19.5645C22.8724 19.2199 23.1529 18.9395 23.4974 18.9395Z" fill="white"/>
<path d="M40.4077 26.4849C40.4642 25.9676 40.5948 25.4262 40.7962 24.8757L41.2741 23.5671C41.3425 23.38 41.3175 23.1716 41.207 23.0059C41.0965 22.8401 40.9137 22.737 40.7148 22.7281C37.2315 22.571 34.6497 23.4922 33.0015 25.4358C31.8317 25.05 30.4001 24.8387 28.6316 24.9153C28.4326 24.9242 28.2498 25.0273 28.1394 25.193C28.0289 25.3588 28.0039 25.5672 28.0722 25.7543L28.5504 27.0632C28.7519 27.6134 28.8825 28.1545 28.9386 28.6717C29.054 29.7286 29.4898 31.6783 31.1118 32.8633C31.9937 33.5076 33.0905 33.8307 34.3875 33.8307C34.9881 33.8307 35.6317 33.7612 36.3166 33.6223C37.5693 33.3749 38.3098 32.0693 37.939 30.8639C39.7847 29.7246 40.2794 27.6591 40.4077 26.4849ZM31.8491 31.8538C30.6147 30.952 30.2744 29.388 30.1813 28.5366C30.1142 27.9189 29.9604 27.2786 29.7245 26.6338L29.5478 26.1501C34.9094 26.2211 36.3695 29.3488 36.7573 31.3116C35.1615 29.0794 32.7432 27.7941 32.6273 27.7333C32.3227 27.5737 31.9446 27.6912 31.7841 27.9967C31.6239 28.3019 31.7417 28.6797 32.0468 28.8402C32.074 28.8545 34.5979 30.2014 35.9905 32.4105C34.2232 32.7556 32.829 32.5694 31.8491 31.8538ZM37.5465 29.6165C37.0402 28.3647 36.0668 26.9074 34.2122 25.9455C35.4726 24.6595 37.3438 23.9924 39.7989 23.9626C39.5021 24.7267 39.2378 25.5834 39.1651 26.349C39.0695 27.2252 38.728 28.716 37.5465 29.6165Z" fill="white"/>
</svg>
