<svg width="58" height="58" viewBox="0 0 58 58" fill="none" xmlns="http://www.w3.org/2000/svg">
<rect width="58" height="58" rx="29" fill="#F4F6F9"/>
<path d="M25.25 36.5C28.0114 36.5 30.25 34.2614 30.25 31.5C30.25 28.7386 28.0114 26.5 25.25 26.5C22.4886 26.5 20.25 28.7386 20.25 31.5C20.25 34.2614 22.4886 36.5 25.25 36.5Z" stroke="black" stroke-width="2" stroke-linecap="round" stroke-linejoin="round"/>
<path d="M17.3438 41.5C18.0533 40.0037 19.1728 38.7394 20.5724 37.8541C21.9719 36.9688 23.594 36.4988 25.25 36.4988C26.906 36.4988 28.5281 36.9688 29.9276 37.8541C31.3272 38.7394 32.4467 40.0037 33.1563 41.5H42.75C43.0815 41.5 43.3995 41.3683 43.6339 41.1339C43.8683 40.8995 44 40.5815 44 40.25V17.75C44 17.4185 43.8683 17.1005 43.6339 16.8661C43.3995 16.6317 43.0815 16.5 42.75 16.5H15.25C14.9185 16.5 14.6005 16.6317 14.3661 16.8661C14.1317 17.1005 14 17.4185 14 17.75V40.25C14 40.5815 14.1317 40.8995 14.3661 41.1339C14.6005 41.3683 14.9185 41.5 15.25 41.5H17.3438Z" stroke="black" stroke-width="2" stroke-linecap="round" stroke-linejoin="round"/>
<path d="M36.5 36.5H39V21.5H19V24" stroke="black" stroke-width="2" stroke-linecap="round" stroke-linejoin="round"/>
</svg>
