<svg width="177" height="54" viewBox="0 0 177 54" fill="none" xmlns="http://www.w3.org/2000/svg">
<path d="M24.5998 47.7C12.8998 47.5 3.39978 38.1 3.59978 26.7C3.79978 15.4 13.7998 5.99996 25.2998 6.29996C36.9998 6.59996 46.2998 16 46.1998 27.4C46.0998 38.7 36.3998 47.9 24.5998 47.7Z" fill="#1B99D4"/>
<path d="M26.417 27.3993C28.917 26.2993 30.917 26.9993 32.517 28.9993C34.517 31.4993 35.617 34.2993 35.117 37.4993C35.017 38.5993 33.617 38.6993 32.717 38.9993C27.617 40.5993 22.517 40.2993 17.317 38.8993C15.317 38.2993 14.717 37.1993 15.117 35.3993C15.617 32.6993 16.817 30.2993 18.717 28.2993C20.017 26.8993 21.517 26.2993 23.317 27.2993C24.317 26.9993 25.117 27.2993 25.117 28.3993C25.217 30.5993 25.217 32.8993 25.117 35.0993C25.117 33.2993 25.117 31.3993 25.217 29.5993C25.417 28.7993 24.917 27.5993 26.417 27.3993Z" fill="white"/>
<path d="M25.3173 26.2C28.6862 26.2 31.4173 23.4689 31.4173 20.1C31.4173 16.7311 28.6862 14 25.3173 14C21.9483 14 19.2173 16.7311 19.2173 20.1C19.2173 23.4689 21.9483 26.2 25.3173 26.2Z" fill="white"/>
<path d="M23.2671 25.8008C24.2671 25.9008 25.1671 25.9008 26.1671 26.0008C26.1671 26.2008 26.1671 26.5008 26.1671 26.7008C24.3671 29.3008 26.1671 32.4008 24.5671 35.1008C24.5671 33.2008 24.5671 31.4008 24.5671 29.5008C24.5671 28.4008 24.9671 27.0008 23.2671 26.6008C23.2671 26.3008 23.2671 26.1008 23.2671 25.8008Z" fill="#1B99D4"/>
<path d="M25.8671 27.4008H24.4671V35.1008H25.8671V27.4008Z" fill="#1B99D4"/>
<path d="M62.3504 36.0954C61.2059 36.0954 60.1803 35.9096 59.2735 35.538C58.3668 35.1664 57.6385 34.6164 57.0885 33.8881C56.5534 33.1597 56.271 32.2827 56.2412 31.2571H60.2992C60.3586 31.8368 60.5593 32.2827 60.9012 32.5949C61.2431 32.8922 61.689 33.0408 62.239 33.0408C62.8038 33.0408 63.2497 32.9145 63.5767 32.6618C63.9038 32.3942 64.0673 32.03 64.0673 31.5692C64.0673 31.1828 63.9335 30.8632 63.6659 30.6105C63.4132 30.3578 63.0937 30.1497 62.7072 29.9862C62.3356 29.8227 61.8005 29.6369 61.1018 29.4288C60.0911 29.1166 59.2661 28.8045 58.6269 28.4923C57.9878 28.1802 57.4378 27.7194 56.977 27.11C56.5162 26.5005 56.2858 25.7053 56.2858 24.7242C56.2858 23.2675 56.8135 22.1304 57.8689 21.3129C58.9242 20.4805 60.2992 20.0643 61.9937 20.0643C63.718 20.0643 65.1078 20.4805 66.1631 21.3129C67.2185 22.1304 67.7833 23.275 67.8577 24.7465H63.7328C63.7031 24.2412 63.5173 23.8472 63.1754 23.5648C62.8335 23.2675 62.395 23.1189 61.8599 23.1189C61.3991 23.1189 61.0275 23.2452 60.7451 23.4979C60.4627 23.7358 60.3215 24.0851 60.3215 24.5459C60.3215 25.0513 60.5593 25.4452 61.035 25.7276C61.5106 26.01 62.2538 26.3147 63.2646 26.6417C64.2754 26.9836 65.0929 27.3106 65.7172 27.6228C66.3564 27.9349 66.9063 28.3883 67.3671 28.9829C67.8279 29.5774 68.0583 30.3429 68.0583 31.2794C68.0583 32.1712 67.8279 32.9813 67.3671 33.7097C66.9212 34.438 66.2672 35.0177 65.405 35.4488C64.5429 35.8799 63.5247 36.0954 62.3504 36.0954ZM78.0077 35.9393L74.2174 30.722V35.9393H70.4047V19.44H74.2174V28.5592L77.9854 23.4979H82.69L77.5172 29.7409L82.7346 35.9393H78.0077ZM86.105 22.2047C85.4361 22.2047 84.8861 22.0115 84.4551 21.625C84.0389 21.2237 83.8308 20.7332 83.8308 20.1535C83.8308 19.5589 84.0389 19.0684 84.4551 18.6819C84.8861 18.2806 85.4361 18.0799 86.105 18.0799C86.759 18.0799 87.2941 18.2806 87.7103 18.6819C88.1414 19.0684 88.3569 19.5589 88.3569 20.1535C88.3569 20.7332 88.1414 21.2237 87.7103 21.625C87.2941 22.0115 86.759 22.2047 86.105 22.2047ZM88.0002 23.4979V35.9393H84.1875V23.4979H88.0002ZM94.5759 19.44V35.9393H90.7632V19.44H94.5759ZM101.152 19.44V35.9393H97.3389V19.44H101.152ZM120.925 23.4979V35.9393H117.112V34.2448C116.726 34.7948 116.198 35.2407 115.529 35.5826C114.875 35.9096 114.147 36.0731 113.344 36.0731C112.393 36.0731 111.553 35.865 110.825 35.4488C110.096 35.0177 109.531 34.4009 109.13 33.5982C108.729 32.7955 108.528 31.8517 108.528 30.7666V23.4979H112.318V30.2537C112.318 31.0861 112.534 31.7327 112.965 32.1935C113.396 32.6543 113.976 32.8847 114.704 32.8847C115.447 32.8847 116.034 32.6543 116.466 32.1935C116.897 31.7327 117.112 31.0861 117.112 30.2537V23.4979H120.925ZM127.476 25.2594C127.848 24.6796 128.361 24.2114 129.015 23.8547C129.669 23.4979 130.434 23.3196 131.311 23.3196C132.337 23.3196 133.266 23.5797 134.098 24.0999C134.931 24.6202 135.585 25.3634 136.06 26.3296C136.551 27.2958 136.796 28.418 136.796 29.6963C136.796 30.9747 136.551 32.1044 136.06 33.0854C135.585 34.0516 134.931 34.8022 134.098 35.3373C133.266 35.8576 132.337 36.1177 131.311 36.1177C130.449 36.1177 129.683 35.9393 129.015 35.5826C128.361 35.2258 127.848 34.7651 127.476 34.2002V41.8702H123.663V23.4979H127.476V25.2594ZM132.916 29.6963C132.916 28.745 132.649 28.0018 132.114 27.4667C131.594 26.9167 130.947 26.6417 130.174 26.6417C129.416 26.6417 128.769 26.9167 128.234 27.4667C127.714 28.0167 127.454 28.7673 127.454 29.7186C127.454 30.6699 127.714 31.4206 128.234 31.9706C128.769 32.5205 129.416 32.7955 130.174 32.7955C130.932 32.7955 131.579 32.5205 132.114 31.9706C132.649 31.4057 132.916 30.6477 132.916 29.6963Z" fill="black"/>
</svg>
