<svg width="244" height="26" viewBox="0 0 244 26" fill="none" xmlns="http://www.w3.org/2000/svg">
<g clip-path="url(#clip0_1054_419)">
<path d="M23.9941 10.46H17.4941C17.3824 10.46 17.291 10.5514 17.291 10.6631V11.8818C17.291 11.9936 17.3824 12.085 17.4941 12.085H23.9941C24.1058 12.085 24.1972 11.9936 24.1972 11.8818V10.6631C24.1972 10.5514 24.1058 10.46 23.9941 10.46ZM20.5917 13.9131H17.4941C17.3824 13.9131 17.291 14.0045 17.291 14.1162V15.335C17.291 15.4467 17.3824 15.5381 17.4941 15.5381H20.5917C20.7035 15.5381 20.7949 15.4467 20.7949 15.335V14.1162C20.7949 14.0045 20.7035 13.9131 20.5917 13.9131ZM12.1189 8.1875H11.0195C10.8621 8.1875 10.7351 8.31445 10.7351 8.47188V14.7687C10.7351 14.8602 10.7783 14.9439 10.8519 14.9973L14.6326 17.7547C14.7595 17.8461 14.9373 17.8207 15.0287 17.6938L15.6812 16.8025V16.8C15.7726 16.673 15.7447 16.4953 15.6177 16.4039L12.4007 14.0781V8.47188C12.4033 8.31445 12.2738 8.1875 12.1189 8.1875Z" fill="#1B99D4"/>
<path d="M20.4344 17.1107H18.9668C18.8246 17.1107 18.6901 17.1843 18.6139 17.3062C18.2914 17.8165 17.9156 18.2888 17.484 18.7205C16.7401 19.4644 15.8742 20.0484 14.9119 20.4546C13.9141 20.8761 12.8553 21.0894 11.7635 21.0894C10.6692 21.0894 9.61037 20.8761 8.61506 20.4546C7.65275 20.0484 6.78693 19.4644 6.04299 18.7205C5.29904 17.9765 4.71506 17.1107 4.30881 16.1484C3.88732 15.1531 3.67404 14.0943 3.67404 12.9999C3.67404 11.9056 3.88732 10.8494 4.30881 9.85151C4.71506 8.8892 5.29904 8.02338 6.04299 7.27944C6.78693 6.53549 7.65275 5.95151 8.61506 5.54526C9.61037 5.12377 10.6717 4.91049 11.7635 4.91049C12.8578 4.91049 13.9166 5.12377 14.9119 5.54526C15.8742 5.95151 16.7401 6.53549 17.484 7.27944C17.9156 7.71108 18.2914 8.18334 18.6139 8.6937C18.6901 8.81557 18.8246 8.8892 18.9668 8.8892H20.4344C20.6096 8.8892 20.7213 8.70639 20.6426 8.55151C18.9871 5.25834 15.6305 3.11791 11.8828 3.07475C6.39592 3.00619 1.8383 7.4978 1.82814 12.9796C1.81799 18.4716 6.26896 22.9277 11.761 22.9277C15.5569 22.9277 18.9694 20.7796 20.6426 17.4484C20.7213 17.2935 20.607 17.1107 20.4344 17.1107Z" fill="#1B99D4"/>
</g>
<path d="M44.5938 12.2109V13.4453H39.9297V12.2109H44.5938ZM37.1562 14.8828H38.6562C38.7396 15.4193 38.8776 15.8776 39.0703 16.2578C39.2682 16.638 39.5573 16.9297 39.9375 17.1328C40.3177 17.3307 40.8281 17.4297 41.4688 17.4297C41.974 17.4297 42.4115 17.3255 42.7812 17.1172C43.151 16.9036 43.4557 16.612 43.6953 16.2422C43.9349 15.8724 44.112 15.4427 44.2266 14.9531C44.3464 14.4635 44.4062 13.9401 44.4062 13.3828V12.2422C44.4062 11.7578 44.3646 11.3099 44.2812 10.8984C44.1979 10.4818 44.0729 10.1094 43.9062 9.78125C43.7396 9.44792 43.5312 9.16406 43.2812 8.92969C43.0365 8.69531 42.75 8.51562 42.4219 8.39062C42.099 8.26562 41.737 8.20312 41.3359 8.20312C40.7526 8.20312 40.276 8.30729 39.9062 8.51562C39.5417 8.72396 39.2604 9.02083 39.0625 9.40625C38.8698 9.78646 38.7344 10.2422 38.6562 10.7734H37.1562C37.2344 10.0234 37.4401 9.36458 37.7734 8.79688C38.1068 8.22396 38.5677 7.77604 39.1562 7.45312C39.75 7.13021 40.4766 6.96875 41.3359 6.96875C42.0391 6.96875 42.6719 7.09375 43.2344 7.34375C43.7969 7.59375 44.276 7.95052 44.6719 8.41406C45.0729 8.8776 45.3776 9.4349 45.5859 10.0859C45.7995 10.737 45.9062 11.4609 45.9062 12.2578V13.3828C45.9062 14.1797 45.7995 14.9036 45.5859 15.5547C45.3776 16.2005 45.0781 16.7552 44.6875 17.2188C44.2969 17.6771 43.8281 18.0312 43.2812 18.2812C42.7396 18.5312 42.1354 18.6562 41.4688 18.6562C40.5573 18.6562 39.7969 18.4922 39.1875 18.1641C38.5781 17.8307 38.1068 17.3802 37.7734 16.8125C37.4453 16.2448 37.2396 15.6016 37.1562 14.8828ZM49.4688 10.0469V18.5H48.0234V10.0469H49.4688ZM55.0156 10.0469L51.0078 14.8906H48.9844L48.7656 13.625H50.4219L53.2578 10.0469H55.0156ZM53.4609 18.5L50.3516 14.6719L51.2812 13.625L55.2969 18.5H53.4609ZM56 14.3672V14.1875C56 13.5781 56.0885 13.013 56.2656 12.4922C56.4427 11.9661 56.6979 11.5104 57.0312 11.125C57.3646 10.7344 57.7682 10.4323 58.2422 10.2188C58.7161 10 59.2474 9.89062 59.8359 9.89062C60.4297 9.89062 60.9635 10 61.4375 10.2188C61.9167 10.4323 62.3229 10.7344 62.6562 11.125C62.9948 11.5104 63.2526 11.9661 63.4297 12.4922C63.6068 13.013 63.6953 13.5781 63.6953 14.1875V14.3672C63.6953 14.9766 63.6068 15.5417 63.4297 16.0625C63.2526 16.5833 62.9948 17.0391 62.6562 17.4297C62.3229 17.8151 61.9193 18.1172 61.4453 18.3359C60.9766 18.5495 60.4453 18.6562 59.8516 18.6562C59.2578 18.6562 58.724 18.5495 58.25 18.3359C57.776 18.1172 57.3698 17.8151 57.0312 17.4297C56.6979 17.0391 56.4427 16.5833 56.2656 16.0625C56.0885 15.5417 56 14.9766 56 14.3672ZM57.4453 14.1875V14.3672C57.4453 14.7891 57.4948 15.1875 57.5938 15.5625C57.6927 15.9323 57.8411 16.2604 58.0391 16.5469C58.2422 16.8333 58.4948 17.0599 58.7969 17.2266C59.099 17.388 59.4505 17.4688 59.8516 17.4688C60.2474 17.4688 60.5938 17.388 60.8906 17.2266C61.1927 17.0599 61.4427 16.8333 61.6406 16.5469C61.8385 16.2604 61.987 15.9323 62.0859 15.5625C62.1901 15.1875 62.2422 14.7891 62.2422 14.3672V14.1875C62.2422 13.7708 62.1901 13.3776 62.0859 13.0078C61.987 12.6328 61.8359 12.3021 61.6328 12.0156C61.4349 11.724 61.1849 11.4948 60.8828 11.3281C60.5859 11.1615 60.237 11.0781 59.8359 11.0781C59.4401 11.0781 59.0911 11.1615 58.7891 11.3281C58.4922 11.4948 58.2422 11.724 58.0391 12.0156C57.8411 12.3021 57.6927 12.6328 57.5938 13.0078C57.4948 13.3776 57.4453 13.7708 57.4453 14.1875ZM71.2422 13.7109V14.8828H66.7734V13.7109H71.2422ZM67.0781 10.0469V18.5H65.6328V10.0469H67.0781ZM72.4141 10.0469V18.5H70.9609V10.0469H72.4141ZM74.3594 14.3672V14.1875C74.3594 13.5781 74.4479 13.013 74.625 12.4922C74.8021 11.9661 75.0573 11.5104 75.3906 11.125C75.724 10.7344 76.1276 10.4323 76.6016 10.2188C77.0755 10 77.6068 9.89062 78.1953 9.89062C78.7891 9.89062 79.3229 10 79.7969 10.2188C80.276 10.4323 80.6823 10.7344 81.0156 11.125C81.3542 11.5104 81.612 11.9661 81.7891 12.4922C81.9661 13.013 82.0547 13.5781 82.0547 14.1875V14.3672C82.0547 14.9766 81.9661 15.5417 81.7891 16.0625C81.612 16.5833 81.3542 17.0391 81.0156 17.4297C80.6823 17.8151 80.2786 18.1172 79.8047 18.3359C79.3359 18.5495 78.8047 18.6562 78.2109 18.6562C77.6172 18.6562 77.0833 18.5495 76.6094 18.3359C76.1354 18.1172 75.7292 17.8151 75.3906 17.4297C75.0573 17.0391 74.8021 16.5833 74.625 16.0625C74.4479 15.5417 74.3594 14.9766 74.3594 14.3672ZM75.8047 14.1875V14.3672C75.8047 14.7891 75.8542 15.1875 75.9531 15.5625C76.0521 15.9323 76.2005 16.2604 76.3984 16.5469C76.6016 16.8333 76.8542 17.0599 77.1562 17.2266C77.4583 17.388 77.8099 17.4688 78.2109 17.4688C78.6068 17.4688 78.9531 17.388 79.25 17.2266C79.5521 17.0599 79.8021 16.8333 80 16.5469C80.1979 16.2604 80.3464 15.9323 80.4453 15.5625C80.5495 15.1875 80.6016 14.7891 80.6016 14.3672V14.1875C80.6016 13.7708 80.5495 13.3776 80.4453 13.0078C80.3464 12.6328 80.1953 12.3021 79.9922 12.0156C79.7943 11.724 79.5443 11.4948 79.2422 11.3281C78.9453 11.1615 78.5964 11.0781 78.1953 11.0781C77.7995 11.0781 77.4505 11.1615 77.1484 11.3281C76.8516 11.4948 76.6016 11.724 76.3984 12.0156C76.2005 12.3021 76.0521 12.6328 75.9531 13.0078C75.8542 13.3776 75.8047 13.7708 75.8047 14.1875ZM88.7266 16.5781L91.6016 10.0469H92.9922L89.2266 18.5H88.2266L84.4766 10.0469H85.8672L88.7266 16.5781ZM85.4453 10.0469V18.5H84V10.0469H85.4453ZM91.9609 18.5V10.0469H93.4141V18.5H91.9609ZM103.68 14.7812H100.906L100.891 13.625H103.156C103.604 13.625 103.977 13.5807 104.273 13.4922C104.576 13.4036 104.802 13.2708 104.953 13.0938C105.104 12.9167 105.18 12.6979 105.18 12.4375C105.18 12.2344 105.135 12.0573 105.047 11.9062C104.964 11.75 104.836 11.6224 104.664 11.5234C104.492 11.4193 104.279 11.3438 104.023 11.2969C103.773 11.2448 103.479 11.2188 103.141 11.2188H101.289V18.5H99.8438V10.0469H103.141C103.677 10.0469 104.159 10.0938 104.586 10.1875C105.018 10.2812 105.385 10.4245 105.688 10.6172C105.995 10.8047 106.229 11.0443 106.391 11.3359C106.552 11.6276 106.633 11.9714 106.633 12.3672C106.633 12.6224 106.581 12.8646 106.477 13.0938C106.372 13.3229 106.219 13.526 106.016 13.7031C105.812 13.8802 105.562 14.026 105.266 14.1406C104.969 14.25 104.628 14.3203 104.242 14.3516L103.68 14.7812ZM103.68 18.5H100.383L101.102 17.3281H103.68C104.081 17.3281 104.414 17.2786 104.68 17.1797C104.945 17.0755 105.143 16.9297 105.273 16.7422C105.409 16.5495 105.477 16.3203 105.477 16.0547C105.477 15.7891 105.409 15.5625 105.273 15.375C105.143 15.1823 104.945 15.0365 104.68 14.9375C104.414 14.8333 104.081 14.7812 103.68 14.7812H101.484L101.5 13.625H104.242L104.766 14.0625C105.229 14.099 105.622 14.2135 105.945 14.4062C106.268 14.599 106.513 14.8438 106.68 15.1406C106.846 15.4323 106.93 15.75 106.93 16.0938C106.93 16.4896 106.854 16.8385 106.703 17.1406C106.557 17.4427 106.344 17.6953 106.062 17.8984C105.781 18.0964 105.44 18.2474 105.039 18.3516C104.638 18.4505 104.185 18.5 103.68 18.5ZM110.312 11.6719V21.75H108.859V10.0469H110.188L110.312 11.6719ZM116.008 14.2031V14.3672C116.008 14.9818 115.935 15.5521 115.789 16.0781C115.643 16.599 115.43 17.0521 115.148 17.4375C114.872 17.8229 114.531 18.1224 114.125 18.3359C113.719 18.5495 113.253 18.6562 112.727 18.6562C112.19 18.6562 111.716 18.5677 111.305 18.3906C110.893 18.2135 110.544 17.9557 110.258 17.6172C109.971 17.2786 109.742 16.8724 109.57 16.3984C109.404 15.9245 109.289 15.3906 109.227 14.7969V13.9219C109.289 13.2969 109.406 12.737 109.578 12.2422C109.75 11.7474 109.977 11.3255 110.258 10.9766C110.544 10.6224 110.891 10.3542 111.297 10.1719C111.703 9.98438 112.172 9.89062 112.703 9.89062C113.234 9.89062 113.706 9.99479 114.117 10.2031C114.529 10.4062 114.875 10.6979 115.156 11.0781C115.438 11.4583 115.648 11.9141 115.789 12.4453C115.935 12.9714 116.008 13.5573 116.008 14.2031ZM114.555 14.3672V14.2031C114.555 13.7812 114.51 13.3854 114.422 13.0156C114.333 12.6406 114.195 12.3125 114.008 12.0312C113.826 11.7448 113.591 11.5208 113.305 11.3594C113.018 11.1927 112.677 11.1094 112.281 11.1094C111.917 11.1094 111.599 11.1719 111.328 11.2969C111.062 11.4219 110.836 11.5911 110.648 11.8047C110.461 12.013 110.307 12.2526 110.188 12.5234C110.073 12.7891 109.987 13.0651 109.93 13.3516V15.375C110.034 15.7396 110.18 16.0833 110.367 16.4062C110.555 16.724 110.805 16.9818 111.117 17.1797C111.43 17.3724 111.823 17.4688 112.297 17.4688C112.688 17.4688 113.023 17.388 113.305 17.2266C113.591 17.0599 113.826 16.8333 114.008 16.5469C114.195 16.2604 114.333 15.9323 114.422 15.5625C114.51 15.1875 114.555 14.7891 114.555 14.3672ZM121.359 18.6562C120.771 18.6562 120.237 18.5573 119.758 18.3594C119.284 18.1562 118.875 17.8724 118.531 17.5078C118.193 17.1432 117.932 16.7109 117.75 16.2109C117.568 15.7109 117.477 15.1641 117.477 14.5703V14.2422C117.477 13.5547 117.578 12.9427 117.781 12.4062C117.984 11.8646 118.26 11.4062 118.609 11.0312C118.958 10.6562 119.354 10.3724 119.797 10.1797C120.24 9.98698 120.698 9.89062 121.172 9.89062C121.776 9.89062 122.297 9.99479 122.734 10.2031C123.177 10.4115 123.539 10.7031 123.82 11.0781C124.102 11.4479 124.31 11.8854 124.445 12.3906C124.581 12.8906 124.648 13.4375 124.648 14.0312V14.6797H118.336V13.5H123.203V13.3906C123.182 13.0156 123.104 12.651 122.969 12.2969C122.839 11.9427 122.63 11.651 122.344 11.4219C122.057 11.1927 121.667 11.0781 121.172 11.0781C120.844 11.0781 120.542 11.1484 120.266 11.2891C119.99 11.4245 119.753 11.6276 119.555 11.8984C119.357 12.1693 119.203 12.5 119.094 12.8906C118.984 13.2812 118.93 13.7318 118.93 14.2422V14.5703C118.93 14.9714 118.984 15.349 119.094 15.7031C119.208 16.0521 119.372 16.3594 119.586 16.625C119.805 16.8906 120.068 17.099 120.375 17.25C120.688 17.401 121.042 17.4766 121.438 17.4766C121.948 17.4766 122.38 17.3724 122.734 17.1641C123.089 16.9557 123.398 16.6771 123.664 16.3281L124.539 17.0234C124.357 17.2995 124.125 17.5625 123.844 17.8125C123.562 18.0625 123.216 18.2656 122.805 18.4219C122.398 18.5781 121.917 18.6562 121.359 18.6562ZM131.195 16.5781L134.07 10.0469H135.461L131.695 18.5H130.695L126.945 10.0469H128.336L131.195 16.5781ZM127.914 10.0469V18.5H126.469V10.0469H127.914ZM134.43 18.5V10.0469H135.883V18.5H134.43ZM141.719 18.6562C141.13 18.6562 140.596 18.5573 140.117 18.3594C139.643 18.1562 139.234 17.8724 138.891 17.5078C138.552 17.1432 138.292 16.7109 138.109 16.2109C137.927 15.7109 137.836 15.1641 137.836 14.5703V14.2422C137.836 13.5547 137.938 12.9427 138.141 12.4062C138.344 11.8646 138.62 11.4062 138.969 11.0312C139.318 10.6562 139.714 10.3724 140.156 10.1797C140.599 9.98698 141.057 9.89062 141.531 9.89062C142.135 9.89062 142.656 9.99479 143.094 10.2031C143.536 10.4115 143.898 10.7031 144.18 11.0781C144.461 11.4479 144.669 11.8854 144.805 12.3906C144.94 12.8906 145.008 13.4375 145.008 14.0312V14.6797H138.695V13.5H143.562V13.3906C143.542 13.0156 143.464 12.651 143.328 12.2969C143.198 11.9427 142.99 11.651 142.703 11.4219C142.417 11.1927 142.026 11.0781 141.531 11.0781C141.203 11.0781 140.901 11.1484 140.625 11.2891C140.349 11.4245 140.112 11.6276 139.914 11.8984C139.716 12.1693 139.562 12.5 139.453 12.8906C139.344 13.2812 139.289 13.7318 139.289 14.2422V14.5703C139.289 14.9714 139.344 15.349 139.453 15.7031C139.568 16.0521 139.732 16.3594 139.945 16.625C140.164 16.8906 140.427 17.099 140.734 17.25C141.047 17.401 141.401 17.4766 141.797 17.4766C142.307 17.4766 142.74 17.3724 143.094 17.1641C143.448 16.9557 143.758 16.6771 144.023 16.3281L144.898 17.0234C144.716 17.2995 144.484 17.5625 144.203 17.8125C143.922 18.0625 143.576 18.2656 143.164 18.4219C142.758 18.5781 142.276 18.6562 141.719 18.6562ZM152.43 13.7109V14.8828H147.961V13.7109H152.43ZM148.266 10.0469V18.5H146.82V10.0469H148.266ZM153.602 10.0469V18.5H152.148V10.0469H153.602ZM157.492 16.2109L161.391 10.0469H162.844V18.5H161.391V12.3359L157.492 18.5H156.055V10.0469H157.492V16.2109Z" fill="#646464"/>
<defs>
<clipPath id="clip0_1054_419">
<rect width="26" height="26" fill="white"/>
</clipPath>
</defs>
</svg>
