<svg width="265" height="26" viewBox="0 0 265 26" fill="none" xmlns="http://www.w3.org/2000/svg">
<g clip-path="url(#clip0_1054_425)">
<path d="M21.6667 19.5C22.8583 19.5 23.8225 18.525 23.8225 17.3333L23.8333 5.41667C23.8333 4.225 22.8583 3.25 21.6667 3.25H4.33333C3.14167 3.25 2.16667 4.225 2.16667 5.41667V17.3333C2.16667 18.525 3.14167 19.5 4.33333 19.5H0C0 20.6917 0.975 21.6667 2.16667 21.6667H23.8333C25.025 21.6667 26 20.6917 26 19.5H21.6667ZM4.33333 5.41667H21.6667V17.3333H4.33333V5.41667ZM13 20.5833C12.4042 20.5833 11.9167 20.0958 11.9167 19.5C11.9167 18.9042 12.4042 18.4167 13 18.4167C13.5958 18.4167 14.0833 18.9042 14.0833 19.5C14.0833 20.0958 13.5958 20.5833 13 20.5833Z" fill="#1B99D4"/>
</g>
<path d="M38.2969 7.125L41.0312 11.4844L43.7656 7.125H45.5234L41.9297 12.7578L45.6094 18.5H43.8359L41.0312 14.0547L38.2266 18.5H36.4531L40.1328 12.7578L36.5391 7.125H38.2969ZM46.5781 14.3672V14.1875C46.5781 13.5781 46.6667 13.013 46.8438 12.4922C47.0208 11.9661 47.276 11.5104 47.6094 11.125C47.9427 10.7344 48.3464 10.4323 48.8203 10.2188C49.2943 10 49.8255 9.89062 50.4141 9.89062C51.0078 9.89062 51.5417 10 52.0156 10.2188C52.4948 10.4323 52.901 10.7344 53.2344 11.125C53.5729 11.5104 53.8307 11.9661 54.0078 12.4922C54.1849 13.013 54.2734 13.5781 54.2734 14.1875V14.3672C54.2734 14.9766 54.1849 15.5417 54.0078 16.0625C53.8307 16.5833 53.5729 17.0391 53.2344 17.4297C52.901 17.8151 52.4974 18.1172 52.0234 18.3359C51.5547 18.5495 51.0234 18.6562 50.4297 18.6562C49.8359 18.6562 49.3021 18.5495 48.8281 18.3359C48.3542 18.1172 47.9479 17.8151 47.6094 17.4297C47.276 17.0391 47.0208 16.5833 46.8438 16.0625C46.6667 15.5417 46.5781 14.9766 46.5781 14.3672ZM48.0234 14.1875V14.3672C48.0234 14.7891 48.0729 15.1875 48.1719 15.5625C48.2708 15.9323 48.4193 16.2604 48.6172 16.5469C48.8203 16.8333 49.0729 17.0599 49.375 17.2266C49.6771 17.388 50.0286 17.4688 50.4297 17.4688C50.8255 17.4688 51.1719 17.388 51.4688 17.2266C51.7708 17.0599 52.0208 16.8333 52.2188 16.5469C52.4167 16.2604 52.5651 15.9323 52.6641 15.5625C52.7682 15.1875 52.8203 14.7891 52.8203 14.3672V14.1875C52.8203 13.7708 52.7682 13.3776 52.6641 13.0078C52.5651 12.6328 52.4141 12.3021 52.2109 12.0156C52.013 11.724 51.763 11.4948 51.4609 11.3281C51.1641 11.1615 50.8151 11.0781 50.4141 11.0781C50.0182 11.0781 49.6693 11.1615 49.3672 11.3281C49.0703 11.4948 48.8203 11.724 48.6172 12.0156C48.4193 12.3021 48.2708 12.6328 48.1719 13.0078C48.0729 13.3776 48.0234 13.7708 48.0234 14.1875ZM57.5312 11.6719V21.75H56.0781V10.0469H57.4062L57.5312 11.6719ZM63.2266 14.2031V14.3672C63.2266 14.9818 63.1536 15.5521 63.0078 16.0781C62.862 16.599 62.6484 17.0521 62.3672 17.4375C62.0911 17.8229 61.75 18.1224 61.3438 18.3359C60.9375 18.5495 60.4714 18.6562 59.9453 18.6562C59.4089 18.6562 58.9349 18.5677 58.5234 18.3906C58.112 18.2135 57.763 17.9557 57.4766 17.6172C57.1901 17.2786 56.9609 16.8724 56.7891 16.3984C56.6224 15.9245 56.5078 15.3906 56.4453 14.7969V13.9219C56.5078 13.2969 56.625 12.737 56.7969 12.2422C56.9688 11.7474 57.1953 11.3255 57.4766 10.9766C57.763 10.6224 58.1094 10.3542 58.5156 10.1719C58.9219 9.98438 59.3906 9.89062 59.9219 9.89062C60.4531 9.89062 60.9245 9.99479 61.3359 10.2031C61.7474 10.4062 62.0938 10.6979 62.375 11.0781C62.6562 11.4583 62.8672 11.9141 63.0078 12.4453C63.1536 12.9714 63.2266 13.5573 63.2266 14.2031ZM61.7734 14.3672V14.2031C61.7734 13.7812 61.7292 13.3854 61.6406 13.0156C61.5521 12.6406 61.4141 12.3125 61.2266 12.0312C61.0443 11.7448 60.8099 11.5208 60.5234 11.3594C60.237 11.1927 59.8958 11.1094 59.5 11.1094C59.1354 11.1094 58.8177 11.1719 58.5469 11.2969C58.2812 11.4219 58.0547 11.5911 57.8672 11.8047C57.6797 12.013 57.526 12.2526 57.4062 12.5234C57.2917 12.7891 57.2057 13.0651 57.1484 13.3516V15.375C57.2526 15.7396 57.3984 16.0833 57.5859 16.4062C57.7734 16.724 58.0234 16.9818 58.3359 17.1797C58.6484 17.3724 59.0417 17.4688 59.5156 17.4688C59.9062 17.4688 60.2422 17.388 60.5234 17.2266C60.8099 17.0599 61.0443 16.8333 61.2266 16.5469C61.4141 16.2604 61.5521 15.9323 61.6406 15.5625C61.7292 15.1875 61.7734 14.7891 61.7734 14.3672ZM64.6875 14.3672V14.1875C64.6875 13.5781 64.776 13.013 64.9531 12.4922C65.1302 11.9661 65.3854 11.5104 65.7188 11.125C66.0521 10.7344 66.4557 10.4323 66.9297 10.2188C67.4036 10 67.9349 9.89062 68.5234 9.89062C69.1172 9.89062 69.651 10 70.125 10.2188C70.6042 10.4323 71.0104 10.7344 71.3438 11.125C71.6823 11.5104 71.9401 11.9661 72.1172 12.4922C72.2943 13.013 72.3828 13.5781 72.3828 14.1875V14.3672C72.3828 14.9766 72.2943 15.5417 72.1172 16.0625C71.9401 16.5833 71.6823 17.0391 71.3438 17.4297C71.0104 17.8151 70.6068 18.1172 70.1328 18.3359C69.6641 18.5495 69.1328 18.6562 68.5391 18.6562C67.9453 18.6562 67.4115 18.5495 66.9375 18.3359C66.4635 18.1172 66.0573 17.8151 65.7188 17.4297C65.3854 17.0391 65.1302 16.5833 64.9531 16.0625C64.776 15.5417 64.6875 14.9766 64.6875 14.3672ZM66.1328 14.1875V14.3672C66.1328 14.7891 66.1823 15.1875 66.2812 15.5625C66.3802 15.9323 66.5286 16.2604 66.7266 16.5469C66.9297 16.8333 67.1823 17.0599 67.4844 17.2266C67.7865 17.388 68.138 17.4688 68.5391 17.4688C68.9349 17.4688 69.2812 17.388 69.5781 17.2266C69.8802 17.0599 70.1302 16.8333 70.3281 16.5469C70.526 16.2604 70.6745 15.9323 70.7734 15.5625C70.8776 15.1875 70.9297 14.7891 70.9297 14.3672V14.1875C70.9297 13.7708 70.8776 13.3776 70.7734 13.0078C70.6745 12.6328 70.5234 12.3021 70.3203 12.0156C70.1224 11.724 69.8724 11.4948 69.5703 11.3281C69.2734 11.1615 68.9245 11.0781 68.5234 11.0781C68.1276 11.0781 67.7786 11.1615 67.4766 11.3281C67.1797 11.4948 66.9297 11.724 66.7266 12.0156C66.5286 12.3021 66.3802 12.6328 66.2812 13.0078C66.1823 13.3776 66.1328 13.7708 66.1328 14.1875ZM74.3203 10.0469H75.7656V17.3125H78.8594V10.0469H80.3125V17.3125H83.3984V10.0469H84.8438V18.5H74.3203V10.0469ZM86.7656 14.3672V14.1875C86.7656 13.5781 86.8542 13.013 87.0312 12.4922C87.2083 11.9661 87.4635 11.5104 87.7969 11.125C88.1302 10.7344 88.5339 10.4323 89.0078 10.2188C89.4818 10 90.013 9.89062 90.6016 9.89062C91.1953 9.89062 91.7292 10 92.2031 10.2188C92.6823 10.4323 93.0885 10.7344 93.4219 11.125C93.7604 11.5104 94.0182 11.9661 94.1953 12.4922C94.3724 13.013 94.4609 13.5781 94.4609 14.1875V14.3672C94.4609 14.9766 94.3724 15.5417 94.1953 16.0625C94.0182 16.5833 93.7604 17.0391 93.4219 17.4297C93.0885 17.8151 92.6849 18.1172 92.2109 18.3359C91.7422 18.5495 91.2109 18.6562 90.6172 18.6562C90.0234 18.6562 89.4896 18.5495 89.0156 18.3359C88.5417 18.1172 88.1354 17.8151 87.7969 17.4297C87.4635 17.0391 87.2083 16.5833 87.0312 16.0625C86.8542 15.5417 86.7656 14.9766 86.7656 14.3672ZM88.2109 14.1875V14.3672C88.2109 14.7891 88.2604 15.1875 88.3594 15.5625C88.4583 15.9323 88.6068 16.2604 88.8047 16.5469C89.0078 16.8333 89.2604 17.0599 89.5625 17.2266C89.8646 17.388 90.2161 17.4688 90.6172 17.4688C91.013 17.4688 91.3594 17.388 91.6562 17.2266C91.9583 17.0599 92.2083 16.8333 92.4062 16.5469C92.6042 16.2604 92.7526 15.9323 92.8516 15.5625C92.9557 15.1875 93.0078 14.7891 93.0078 14.3672V14.1875C93.0078 13.7708 92.9557 13.3776 92.8516 13.0078C92.7526 12.6328 92.6016 12.3021 92.3984 12.0156C92.2005 11.724 91.9505 11.4948 91.6484 11.3281C91.3516 11.1615 91.0026 11.0781 90.6016 11.0781C90.2057 11.0781 89.8568 11.1615 89.5547 11.3281C89.2578 11.4948 89.0078 11.724 88.8047 12.0156C88.6068 12.3021 88.4583 12.6328 88.3594 13.0078C88.2604 13.3776 88.2109 13.7708 88.2109 14.1875ZM99.7812 18.6562C99.1927 18.6562 98.6589 18.5573 98.1797 18.3594C97.7057 18.1562 97.2969 17.8724 96.9531 17.5078C96.6146 17.1432 96.3542 16.7109 96.1719 16.2109C95.9896 15.7109 95.8984 15.1641 95.8984 14.5703V14.2422C95.8984 13.5547 96 12.9427 96.2031 12.4062C96.4062 11.8646 96.6823 11.4062 97.0312 11.0312C97.3802 10.6562 97.776 10.3724 98.2188 10.1797C98.6615 9.98698 99.1198 9.89062 99.5938 9.89062C100.198 9.89062 100.719 9.99479 101.156 10.2031C101.599 10.4115 101.961 10.7031 102.242 11.0781C102.523 11.4479 102.732 11.8854 102.867 12.3906C103.003 12.8906 103.07 13.4375 103.07 14.0312V14.6797H96.7578V13.5H101.625V13.3906C101.604 13.0156 101.526 12.651 101.391 12.2969C101.26 11.9427 101.052 11.651 100.766 11.4219C100.479 11.1927 100.089 11.0781 99.5938 11.0781C99.2656 11.0781 98.9635 11.1484 98.6875 11.2891C98.4115 11.4245 98.1745 11.6276 97.9766 11.8984C97.7786 12.1693 97.625 12.5 97.5156 12.8906C97.4062 13.2812 97.3516 13.7318 97.3516 14.2422V14.5703C97.3516 14.9714 97.4062 15.349 97.5156 15.7031C97.6302 16.0521 97.7943 16.3594 98.0078 16.625C98.2266 16.8906 98.4896 17.099 98.7969 17.25C99.1094 17.401 99.4635 17.4766 99.8594 17.4766C100.37 17.4766 100.802 17.3724 101.156 17.1641C101.51 16.9557 101.82 16.6771 102.086 16.3281L102.961 17.0234C102.779 17.2995 102.547 17.5625 102.266 17.8125C101.984 18.0625 101.638 18.2656 101.227 18.4219C100.82 18.5781 100.339 18.6562 99.7812 18.6562ZM114.359 10.0469V11.2422H110.086V10.0469H114.359ZM110.297 10.0469V18.5H108.852V10.0469H110.297ZM115.641 10.0469V18.5H114.188V10.0469H115.641ZM119.406 11.6719V21.75H117.953V10.0469H119.281L119.406 11.6719ZM125.102 14.2031V14.3672C125.102 14.9818 125.029 15.5521 124.883 16.0781C124.737 16.599 124.523 17.0521 124.242 17.4375C123.966 17.8229 123.625 18.1224 123.219 18.3359C122.812 18.5495 122.346 18.6562 121.82 18.6562C121.284 18.6562 120.81 18.5677 120.398 18.3906C119.987 18.2135 119.638 17.9557 119.352 17.6172C119.065 17.2786 118.836 16.8724 118.664 16.3984C118.497 15.9245 118.383 15.3906 118.32 14.7969V13.9219C118.383 13.2969 118.5 12.737 118.672 12.2422C118.844 11.7474 119.07 11.3255 119.352 10.9766C119.638 10.6224 119.984 10.3542 120.391 10.1719C120.797 9.98438 121.266 9.89062 121.797 9.89062C122.328 9.89062 122.799 9.99479 123.211 10.2031C123.622 10.4062 123.969 10.6979 124.25 11.0781C124.531 11.4583 124.742 11.9141 124.883 12.4453C125.029 12.9714 125.102 13.5573 125.102 14.2031ZM123.648 14.3672V14.2031C123.648 13.7812 123.604 13.3854 123.516 13.0156C123.427 12.6406 123.289 12.3125 123.102 12.0312C122.919 11.7448 122.685 11.5208 122.398 11.3594C122.112 11.1927 121.771 11.1094 121.375 11.1094C121.01 11.1094 120.693 11.1719 120.422 11.2969C120.156 11.4219 119.93 11.5911 119.742 11.8047C119.555 12.013 119.401 12.2526 119.281 12.5234C119.167 12.7891 119.081 13.0651 119.023 13.3516V15.375C119.128 15.7396 119.273 16.0833 119.461 16.4062C119.648 16.724 119.898 16.9818 120.211 17.1797C120.523 17.3724 120.917 17.4688 121.391 17.4688C121.781 17.4688 122.117 17.388 122.398 17.2266C122.685 17.0599 122.919 16.8333 123.102 16.5469C123.289 16.2604 123.427 15.9323 123.516 15.5625C123.604 15.1875 123.648 14.7891 123.648 14.3672ZM126.562 14.3672V14.1875C126.562 13.5781 126.651 13.013 126.828 12.4922C127.005 11.9661 127.26 11.5104 127.594 11.125C127.927 10.7344 128.331 10.4323 128.805 10.2188C129.279 10 129.81 9.89062 130.398 9.89062C130.992 9.89062 131.526 10 132 10.2188C132.479 10.4323 132.885 10.7344 133.219 11.125C133.557 11.5104 133.815 11.9661 133.992 12.4922C134.169 13.013 134.258 13.5781 134.258 14.1875V14.3672C134.258 14.9766 134.169 15.5417 133.992 16.0625C133.815 16.5833 133.557 17.0391 133.219 17.4297C132.885 17.8151 132.482 18.1172 132.008 18.3359C131.539 18.5495 131.008 18.6562 130.414 18.6562C129.82 18.6562 129.286 18.5495 128.812 18.3359C128.339 18.1172 127.932 17.8151 127.594 17.4297C127.26 17.0391 127.005 16.5833 126.828 16.0625C126.651 15.5417 126.562 14.9766 126.562 14.3672ZM128.008 14.1875V14.3672C128.008 14.7891 128.057 15.1875 128.156 15.5625C128.255 15.9323 128.404 16.2604 128.602 16.5469C128.805 16.8333 129.057 17.0599 129.359 17.2266C129.661 17.388 130.013 17.4688 130.414 17.4688C130.81 17.4688 131.156 17.388 131.453 17.2266C131.755 17.0599 132.005 16.8333 132.203 16.5469C132.401 16.2604 132.549 15.9323 132.648 15.5625C132.753 15.1875 132.805 14.7891 132.805 14.3672V14.1875C132.805 13.7708 132.753 13.3776 132.648 13.0078C132.549 12.6328 132.398 12.3021 132.195 12.0156C131.997 11.724 131.747 11.4948 131.445 11.3281C131.148 11.1615 130.799 11.0781 130.398 11.0781C130.003 11.0781 129.654 11.1615 129.352 11.3281C129.055 11.4948 128.805 11.724 128.602 12.0156C128.404 12.3021 128.255 12.6328 128.156 13.0078C128.057 13.3776 128.008 13.7708 128.008 14.1875ZM137.633 16.2109L141.531 10.0469H142.984V18.5H141.531V12.3359L137.633 18.5H136.195V10.0469H137.633V16.2109ZM148.461 14.4609H146.906V13.5703H148.344C148.745 13.5703 149.062 13.5208 149.297 13.4219C149.531 13.3177 149.698 13.1745 149.797 12.9922C149.896 12.8099 149.945 12.5964 149.945 12.3516C149.945 12.1328 149.888 11.9271 149.773 11.7344C149.664 11.5365 149.487 11.3776 149.242 11.2578C148.997 11.1328 148.669 11.0703 148.258 11.0703C147.924 11.0703 147.622 11.1302 147.352 11.25C147.081 11.3646 146.865 11.5234 146.703 11.7266C146.547 11.9245 146.469 12.1484 146.469 12.3984H145.023C145.023 11.8828 145.169 11.4401 145.461 11.0703C145.758 10.6953 146.151 10.4062 146.641 10.2031C147.135 10 147.674 9.89844 148.258 9.89844C148.747 9.89844 149.185 9.95312 149.57 10.0625C149.961 10.1667 150.292 10.3229 150.562 10.5312C150.833 10.7344 151.039 10.9896 151.18 11.2969C151.326 11.599 151.398 11.9505 151.398 12.3516C151.398 12.638 151.331 12.9089 151.195 13.1641C151.06 13.4193 150.865 13.6458 150.609 13.8438C150.354 14.0365 150.044 14.1875 149.68 14.2969C149.32 14.4062 148.914 14.4609 148.461 14.4609ZM146.906 13.9141H148.461C148.966 13.9141 149.411 13.9635 149.797 14.0625C150.182 14.1562 150.505 14.2969 150.766 14.4844C151.026 14.6719 151.221 14.9036 151.352 15.1797C151.487 15.4505 151.555 15.763 151.555 16.1172C151.555 16.513 151.474 16.8698 151.312 17.1875C151.156 17.5 150.932 17.7656 150.641 17.9844C150.349 18.2031 150 18.3698 149.594 18.4844C149.193 18.599 148.747 18.6562 148.258 18.6562C147.711 18.6562 147.18 18.5625 146.664 18.375C146.148 18.1875 145.724 17.8984 145.391 17.5078C145.057 17.112 144.891 16.6094 144.891 16H146.336C146.336 16.2552 146.417 16.4974 146.578 16.7266C146.74 16.9557 146.964 17.1406 147.25 17.2812C147.542 17.4219 147.878 17.4922 148.258 17.4922C148.664 17.4922 149.003 17.4297 149.273 17.3047C149.544 17.1797 149.747 17.013 149.883 16.8047C150.023 16.5964 150.094 16.3698 150.094 16.125C150.094 15.8073 150.031 15.5521 149.906 15.3594C149.781 15.1667 149.589 15.026 149.328 14.9375C149.073 14.8438 148.745 14.7969 148.344 14.7969H146.906V13.9141ZM157.398 14.7812H154.625L154.609 13.625H156.875C157.323 13.625 157.695 13.5807 157.992 13.4922C158.294 13.4036 158.521 13.2708 158.672 13.0938C158.823 12.9167 158.898 12.6979 158.898 12.4375C158.898 12.2344 158.854 12.0573 158.766 11.9062C158.682 11.75 158.555 11.6224 158.383 11.5234C158.211 11.4193 157.997 11.3438 157.742 11.2969C157.492 11.2448 157.198 11.2188 156.859 11.2188H155.008V18.5H153.562V10.0469H156.859C157.396 10.0469 157.878 10.0938 158.305 10.1875C158.737 10.2812 159.104 10.4245 159.406 10.6172C159.714 10.8047 159.948 11.0443 160.109 11.3359C160.271 11.6276 160.352 11.9714 160.352 12.3672C160.352 12.6224 160.299 12.8646 160.195 13.0938C160.091 13.3229 159.938 13.526 159.734 13.7031C159.531 13.8802 159.281 14.026 158.984 14.1406C158.688 14.25 158.346 14.3203 157.961 14.3516L157.398 14.7812ZM157.398 18.5H154.102L154.82 17.3281H157.398C157.799 17.3281 158.133 17.2786 158.398 17.1797C158.664 17.0755 158.862 16.9297 158.992 16.7422C159.128 16.5495 159.195 16.3203 159.195 16.0547C159.195 15.7891 159.128 15.5625 158.992 15.375C158.862 15.1823 158.664 15.0365 158.398 14.9375C158.133 14.8333 157.799 14.7812 157.398 14.7812H155.203L155.219 13.625H157.961L158.484 14.0625C158.948 14.099 159.341 14.2135 159.664 14.4062C159.987 14.599 160.232 14.8438 160.398 15.1406C160.565 15.4323 160.648 15.75 160.648 16.0938C160.648 16.4896 160.573 16.8385 160.422 17.1406C160.276 17.4427 160.062 17.6953 159.781 17.8984C159.5 18.0964 159.159 18.2474 158.758 18.3516C158.357 18.4505 157.904 18.5 157.398 18.5ZM162.203 14.3672V14.1875C162.203 13.5781 162.292 13.013 162.469 12.4922C162.646 11.9661 162.901 11.5104 163.234 11.125C163.568 10.7344 163.971 10.4323 164.445 10.2188C164.919 10 165.451 9.89062 166.039 9.89062C166.633 9.89062 167.167 10 167.641 10.2188C168.12 10.4323 168.526 10.7344 168.859 11.125C169.198 11.5104 169.456 11.9661 169.633 12.4922C169.81 13.013 169.898 13.5781 169.898 14.1875V14.3672C169.898 14.9766 169.81 15.5417 169.633 16.0625C169.456 16.5833 169.198 17.0391 168.859 17.4297C168.526 17.8151 168.122 18.1172 167.648 18.3359C167.18 18.5495 166.648 18.6562 166.055 18.6562C165.461 18.6562 164.927 18.5495 164.453 18.3359C163.979 18.1172 163.573 17.8151 163.234 17.4297C162.901 17.0391 162.646 16.5833 162.469 16.0625C162.292 15.5417 162.203 14.9766 162.203 14.3672ZM163.648 14.1875V14.3672C163.648 14.7891 163.698 15.1875 163.797 15.5625C163.896 15.9323 164.044 16.2604 164.242 16.5469C164.445 16.8333 164.698 17.0599 165 17.2266C165.302 17.388 165.654 17.4688 166.055 17.4688C166.451 17.4688 166.797 17.388 167.094 17.2266C167.396 17.0599 167.646 16.8333 167.844 16.5469C168.042 16.2604 168.19 15.9323 168.289 15.5625C168.393 15.1875 168.445 14.7891 168.445 14.3672V14.1875C168.445 13.7708 168.393 13.3776 168.289 13.0078C168.19 12.6328 168.039 12.3021 167.836 12.0156C167.638 11.724 167.388 11.4948 167.086 11.3281C166.789 11.1615 166.44 11.0781 166.039 11.0781C165.643 11.0781 165.294 11.1615 164.992 11.3281C164.695 11.4948 164.445 11.724 164.242 12.0156C164.044 12.3021 163.896 12.6328 163.797 13.0078C163.698 13.3776 163.648 13.7708 163.648 14.1875ZM172.672 10.0469H174.117L173.992 13.2109C173.961 14.013 173.87 14.7057 173.719 15.2891C173.568 15.8724 173.375 16.3698 173.141 16.7812C172.906 17.1875 172.643 17.5286 172.352 17.8047C172.065 18.0807 171.768 18.3125 171.461 18.5H170.742L170.781 17.3203L171.078 17.3125C171.25 17.1094 171.417 16.901 171.578 16.6875C171.74 16.4688 171.888 16.2109 172.023 15.9141C172.159 15.612 172.271 15.2448 172.359 14.8125C172.453 14.375 172.513 13.8411 172.539 13.2109L172.672 10.0469ZM173.031 10.0469H178.117V18.5H176.672V11.3828H173.031V10.0469ZM170.414 17.3125H179.203V20.9922H177.758V18.5H171.859V20.9922H170.406L170.414 17.3125ZM182.367 16.2109L186.266 10.0469H187.719V18.5H186.266V12.3359L182.367 18.5H180.93V10.0469H182.367V16.2109ZM193.484 10.0469V18.5H192.031V10.0469H193.484ZM196.32 10.0469V11.2188H189.25V10.0469H196.32ZM200.625 18.6562C200.036 18.6562 199.503 18.5573 199.023 18.3594C198.549 18.1562 198.141 17.8724 197.797 17.5078C197.458 17.1432 197.198 16.7109 197.016 16.2109C196.833 15.7109 196.742 15.1641 196.742 14.5703V14.2422C196.742 13.5547 196.844 12.9427 197.047 12.4062C197.25 11.8646 197.526 11.4062 197.875 11.0312C198.224 10.6562 198.62 10.3724 199.062 10.1797C199.505 9.98698 199.964 9.89062 200.438 9.89062C201.042 9.89062 201.562 9.99479 202 10.2031C202.443 10.4115 202.805 10.7031 203.086 11.0781C203.367 11.4479 203.576 11.8854 203.711 12.3906C203.846 12.8906 203.914 13.4375 203.914 14.0312V14.6797H197.602V13.5H202.469V13.3906C202.448 13.0156 202.37 12.651 202.234 12.2969C202.104 11.9427 201.896 11.651 201.609 11.4219C201.323 11.1927 200.932 11.0781 200.438 11.0781C200.109 11.0781 199.807 11.1484 199.531 11.2891C199.255 11.4245 199.018 11.6276 198.82 11.8984C198.622 12.1693 198.469 12.5 198.359 12.8906C198.25 13.2812 198.195 13.7318 198.195 14.2422V14.5703C198.195 14.9714 198.25 15.349 198.359 15.7031C198.474 16.0521 198.638 16.3594 198.852 16.625C199.07 16.8906 199.333 17.099 199.641 17.25C199.953 17.401 200.307 17.4766 200.703 17.4766C201.214 17.4766 201.646 17.3724 202 17.1641C202.354 16.9557 202.664 16.6771 202.93 16.3281L203.805 17.0234C203.622 17.2995 203.391 17.5625 203.109 17.8125C202.828 18.0625 202.482 18.2656 202.07 18.4219C201.664 18.5781 201.182 18.6562 200.625 18.6562ZM211.25 10.0469V11.2422H207.164V10.0469H211.25ZM212.523 10.0469V18.5H211.078V10.0469H212.523ZM206.812 10.0469H208.266L208.047 14.125C208.01 14.7552 207.951 15.3125 207.867 15.7969C207.789 16.276 207.68 16.6875 207.539 17.0312C207.404 17.375 207.232 17.6562 207.023 17.875C206.82 18.0885 206.576 18.2474 206.289 18.3516C206.003 18.4505 205.672 18.5 205.297 18.5H204.844V17.2266L205.156 17.2031C205.38 17.1875 205.57 17.1354 205.727 17.0469C205.888 16.9583 206.023 16.8281 206.133 16.6562C206.242 16.4792 206.331 16.2526 206.398 15.9766C206.471 15.7005 206.526 15.3724 206.562 14.9922C206.604 14.612 206.635 14.1693 206.656 13.6641L206.812 10.0469ZM216.039 12.9531H218.578C219.26 12.9531 219.836 13.0729 220.305 13.3125C220.773 13.5469 221.128 13.8724 221.367 14.2891C221.612 14.7005 221.734 15.1693 221.734 15.6953C221.734 16.0859 221.667 16.4531 221.531 16.7969C221.396 17.1354 221.193 17.4323 220.922 17.6875C220.656 17.9427 220.326 18.1432 219.93 18.2891C219.539 18.4297 219.089 18.5 218.578 18.5H214.984V10.0469H216.43V17.3125H218.578C218.995 17.3125 219.328 17.237 219.578 17.0859C219.828 16.9349 220.008 16.7396 220.117 16.5C220.227 16.2604 220.281 16.0104 220.281 15.75C220.281 15.4948 220.227 15.2448 220.117 15C220.008 14.7552 219.828 14.5521 219.578 14.3906C219.328 14.224 218.995 14.1406 218.578 14.1406H216.039V12.9531ZM229.273 13.7109V14.8828H224.805V13.7109H229.273ZM225.109 10.0469V18.5H223.664V10.0469H225.109ZM230.445 10.0469V18.5H228.992V10.0469H230.445ZM232.391 14.3672V14.1875C232.391 13.5781 232.479 13.013 232.656 12.4922C232.833 11.9661 233.089 11.5104 233.422 11.125C233.755 10.7344 234.159 10.4323 234.633 10.2188C235.107 10 235.638 9.89062 236.227 9.89062C236.82 9.89062 237.354 10 237.828 10.2188C238.307 10.4323 238.714 10.7344 239.047 11.125C239.385 11.5104 239.643 11.9661 239.82 12.4922C239.997 13.013 240.086 13.5781 240.086 14.1875V14.3672C240.086 14.9766 239.997 15.5417 239.82 16.0625C239.643 16.5833 239.385 17.0391 239.047 17.4297C238.714 17.8151 238.31 18.1172 237.836 18.3359C237.367 18.5495 236.836 18.6562 236.242 18.6562C235.648 18.6562 235.115 18.5495 234.641 18.3359C234.167 18.1172 233.76 17.8151 233.422 17.4297C233.089 17.0391 232.833 16.5833 232.656 16.0625C232.479 15.5417 232.391 14.9766 232.391 14.3672ZM233.836 14.1875V14.3672C233.836 14.7891 233.885 15.1875 233.984 15.5625C234.083 15.9323 234.232 16.2604 234.43 16.5469C234.633 16.8333 234.885 17.0599 235.188 17.2266C235.49 17.388 235.841 17.4688 236.242 17.4688C236.638 17.4688 236.984 17.388 237.281 17.2266C237.583 17.0599 237.833 16.8333 238.031 16.5469C238.229 16.2604 238.378 15.9323 238.477 15.5625C238.581 15.1875 238.633 14.7891 238.633 14.3672V14.1875C238.633 13.7708 238.581 13.3776 238.477 13.0078C238.378 12.6328 238.227 12.3021 238.023 12.0156C237.826 11.724 237.576 11.4948 237.273 11.3281C236.977 11.1615 236.628 11.0781 236.227 11.0781C235.831 11.0781 235.482 11.1615 235.18 11.3281C234.883 11.4948 234.633 11.724 234.43 12.0156C234.232 12.3021 234.083 12.6328 233.984 13.0078C233.885 13.3776 233.836 13.7708 233.836 14.1875ZM245.281 17.4688C245.625 17.4688 245.943 17.3984 246.234 17.2578C246.526 17.1172 246.766 16.9245 246.953 16.6797C247.141 16.4297 247.247 16.1458 247.273 15.8281H248.648C248.622 16.3281 248.453 16.7943 248.141 17.2266C247.833 17.6536 247.43 18 246.93 18.2656C246.43 18.526 245.88 18.6562 245.281 18.6562C244.646 18.6562 244.091 18.5443 243.617 18.3203C243.148 18.0964 242.758 17.7891 242.445 17.3984C242.138 17.0078 241.906 16.5599 241.75 16.0547C241.599 15.5443 241.523 15.0052 241.523 14.4375V14.1094C241.523 13.5417 241.599 13.0052 241.75 12.5C241.906 11.9896 242.138 11.5391 242.445 11.1484C242.758 10.7578 243.148 10.4505 243.617 10.2266C244.091 10.0026 244.646 9.89062 245.281 9.89062C245.943 9.89062 246.521 10.026 247.016 10.2969C247.51 10.5625 247.898 10.9271 248.18 11.3906C248.466 11.849 248.622 12.3698 248.648 12.9531H247.273C247.247 12.6042 247.148 12.2891 246.977 12.0078C246.81 11.7266 246.581 11.5026 246.289 11.3359C246.003 11.1641 245.667 11.0781 245.281 11.0781C244.839 11.0781 244.466 11.1667 244.164 11.3438C243.867 11.5156 243.63 11.75 243.453 12.0469C243.281 12.3385 243.156 12.6641 243.078 13.0234C243.005 13.3776 242.969 13.7396 242.969 14.1094V14.4375C242.969 14.8073 243.005 15.1719 243.078 15.5312C243.151 15.8906 243.273 16.2161 243.445 16.5078C243.622 16.7995 243.859 17.0339 244.156 17.2109C244.458 17.3828 244.833 17.4688 245.281 17.4688ZM253.719 10.0469V18.5H252.266V10.0469H253.719ZM256.555 10.0469V11.2188H249.484V10.0469H256.555ZM259.164 12.9531H261.703C262.385 12.9531 262.961 13.0729 263.43 13.3125C263.898 13.5469 264.253 13.8724 264.492 14.2891C264.737 14.7005 264.859 15.1693 264.859 15.6953C264.859 16.0859 264.792 16.4531 264.656 16.7969C264.521 17.1354 264.318 17.4323 264.047 17.6875C263.781 17.9427 263.451 18.1432 263.055 18.2891C262.664 18.4297 262.214 18.5 261.703 18.5H258.109V10.0469H259.555V17.3125H261.703C262.12 17.3125 262.453 17.237 262.703 17.0859C262.953 16.9349 263.133 16.7396 263.242 16.5C263.352 16.2604 263.406 16.0104 263.406 15.75C263.406 15.4948 263.352 15.2448 263.242 15C263.133 14.7552 262.953 14.5521 262.703 14.3906C262.453 14.224 262.12 14.1406 261.703 14.1406H259.164V12.9531Z" fill="#646464"/>
<defs>
<clipPath id="clip0_1054_425">
<rect width="26" height="26" fill="white"/>
</clipPath>
</defs>
</svg>
