<svg width="244" height="26" viewBox="0 0 244 26" fill="none" xmlns="http://www.w3.org/2000/svg">
<g clip-path="url(#clip0_1054_407)">
<path d="M9.74967 10.8327V19.4993L17.333 15.166L9.74967 10.8327ZM22.7497 6.49935H14.538L18.1022 2.93518L17.333 2.16602L12.9997 6.49935H12.9672L8.63384 2.16602L7.88634 2.93518L11.4397 6.49935H3.24967C2.05801 6.49935 1.08301 7.47435 1.08301 8.66602V21.666C1.08301 22.8577 2.05801 23.8327 3.24967 23.8327H22.7497C23.9413 23.8327 24.9163 22.8577 24.9163 21.666V8.66602C24.9163 7.47435 23.9413 6.49935 22.7497 6.49935ZM22.7497 21.666H3.24967V8.66602H22.7497V21.666Z" fill="#1B99D4"/>
</g>
<path d="M46.0781 12.4531V13.1719C46.0781 14.026 45.9714 14.7917 45.7578 15.4688C45.5443 16.1458 45.237 16.7214 44.8359 17.1953C44.4349 17.6693 43.9531 18.0312 43.3906 18.2812C42.8333 18.5312 42.2083 18.6562 41.5156 18.6562C40.8438 18.6562 40.2266 18.5312 39.6641 18.2812C39.1068 18.0312 38.6224 17.6693 38.2109 17.1953C37.8047 16.7214 37.4896 16.1458 37.2656 15.4688C37.0417 14.7917 36.9297 14.026 36.9297 13.1719V12.4531C36.9297 11.599 37.0391 10.8359 37.2578 10.1641C37.4818 9.48698 37.7969 8.91146 38.2031 8.4375C38.6094 7.95833 39.0911 7.59375 39.6484 7.34375C40.2109 7.09375 40.8281 6.96875 41.5 6.96875C42.1927 6.96875 42.8177 7.09375 43.375 7.34375C43.9375 7.59375 44.4193 7.95833 44.8203 8.4375C45.2266 8.91146 45.5365 9.48698 45.75 10.1641C45.9688 10.8359 46.0781 11.599 46.0781 12.4531ZM44.5859 13.1719V12.4375C44.5859 11.7604 44.5156 11.1615 44.375 10.6406C44.2396 10.1198 44.0391 9.68229 43.7734 9.32812C43.5078 8.97396 43.1823 8.70573 42.7969 8.52344C42.4167 8.34115 41.9844 8.25 41.5 8.25C41.0312 8.25 40.6068 8.34115 40.2266 8.52344C39.8516 8.70573 39.5286 8.97396 39.2578 9.32812C38.9922 9.68229 38.7865 10.1198 38.6406 10.6406C38.4948 11.1615 38.4219 11.7604 38.4219 12.4375V13.1719C38.4219 13.8542 38.4948 14.4583 38.6406 14.9844C38.7865 15.5052 38.9948 15.9453 39.2656 16.3047C39.5417 16.6589 39.8672 16.9271 40.2422 17.1094C40.6224 17.2917 41.0469 17.3828 41.5156 17.3828C42.0052 17.3828 42.4401 17.2917 42.8203 17.1094C43.2005 16.9271 43.5208 16.6589 43.7812 16.3047C44.0469 15.9453 44.2474 15.5052 44.3828 14.9844C44.5182 14.4583 44.5859 13.8542 44.5859 13.1719ZM53.8516 13.7109V14.8828H49.3828V13.7109H53.8516ZM49.6875 10.0469V18.5H48.2422V10.0469H49.6875ZM55.0234 10.0469V18.5H53.5703V10.0469H55.0234ZM63 10.0469V11.2422H58.9141V10.0469H63ZM64.2734 10.0469V18.5H62.8281V10.0469H64.2734ZM58.5625 10.0469H60.0156L59.7969 14.125C59.7604 14.7552 59.7005 15.3125 59.6172 15.7969C59.5391 16.276 59.4297 16.6875 59.2891 17.0312C59.1536 17.375 58.9818 17.6562 58.7734 17.875C58.5703 18.0885 58.3255 18.2474 58.0391 18.3516C57.7526 18.4505 57.4219 18.5 57.0469 18.5H56.5938V17.2266L56.9062 17.2031C57.1302 17.1875 57.3203 17.1354 57.4766 17.0469C57.638 16.9583 57.7734 16.8281 57.8828 16.6562C57.9922 16.4792 58.0807 16.2526 58.1484 15.9766C58.2214 15.7005 58.276 15.3724 58.3125 14.9922C58.3542 14.612 58.3854 14.1693 58.4062 13.6641L58.5625 10.0469ZM71.5859 17.0547V12.7031C71.5859 12.3698 71.5182 12.0807 71.3828 11.8359C71.2526 11.5859 71.0547 11.3932 70.7891 11.2578C70.5234 11.1224 70.1953 11.0547 69.8047 11.0547C69.4401 11.0547 69.1198 11.1172 68.8438 11.2422C68.5729 11.3672 68.3594 11.5312 68.2031 11.7344C68.0521 11.9375 67.9766 12.1562 67.9766 12.3906H66.5312C66.5312 12.0885 66.6094 11.7891 66.7656 11.4922C66.9219 11.1953 67.1458 10.9271 67.4375 10.6875C67.7344 10.4427 68.0885 10.25 68.5 10.1094C68.9167 9.96354 69.3802 9.89062 69.8906 9.89062C70.5052 9.89062 71.0469 9.99479 71.5156 10.2031C71.9896 10.4115 72.3594 10.7266 72.625 11.1484C72.8958 11.5651 73.0312 12.0885 73.0312 12.7188V16.6562C73.0312 16.9375 73.0547 17.237 73.1016 17.5547C73.1536 17.8724 73.2292 18.1458 73.3281 18.375V18.5H71.8203C71.7474 18.3333 71.6901 18.112 71.6484 17.8359C71.6068 17.5547 71.5859 17.2943 71.5859 17.0547ZM71.8359 13.375L71.8516 14.3906H70.3906C69.9792 14.3906 69.612 14.4245 69.2891 14.4922C68.9661 14.5547 68.6953 14.651 68.4766 14.7812C68.2578 14.9115 68.0911 15.0755 67.9766 15.2734C67.862 15.4661 67.8047 15.6927 67.8047 15.9531C67.8047 16.2188 67.8646 16.4609 67.9844 16.6797C68.1042 16.8984 68.2839 17.0729 68.5234 17.2031C68.7682 17.3281 69.0677 17.3906 69.4219 17.3906C69.8646 17.3906 70.2552 17.2969 70.5938 17.1094C70.9323 16.9219 71.2005 16.6927 71.3984 16.4219C71.6016 16.151 71.7109 15.888 71.7266 15.6328L72.3438 16.3281C72.3073 16.5469 72.2083 16.7891 72.0469 17.0547C71.8854 17.3203 71.6693 17.5755 71.3984 17.8203C71.1328 18.0599 70.8151 18.2604 70.4453 18.4219C70.0807 18.5781 69.6693 18.6562 69.2109 18.6562C68.638 18.6562 68.1354 18.5443 67.7031 18.3203C67.276 18.0964 66.9427 17.7969 66.7031 17.4219C66.4688 17.0417 66.3516 16.6172 66.3516 16.1484C66.3516 15.6953 66.4401 15.2969 66.6172 14.9531C66.7943 14.6042 67.0495 14.3151 67.3828 14.0859C67.7161 13.8516 68.1172 13.6745 68.5859 13.5547C69.0547 13.4349 69.5781 13.375 70.1562 13.375H71.8359ZM76.8672 16.2109L80.7656 10.0469H82.2188V18.5H80.7656V12.3359L76.8672 18.5H75.4297V10.0469H76.8672V16.2109ZM79.9766 6.98438H81.1484C81.1484 7.39062 81.0547 7.7526 80.8672 8.07031C80.6797 8.38281 80.4115 8.6276 80.0625 8.80469C79.7135 8.98177 79.2995 9.07031 78.8203 9.07031C78.0964 9.07031 77.5234 8.8776 77.1016 8.49219C76.6849 8.10156 76.4766 7.59896 76.4766 6.98438H77.6484C77.6484 7.29167 77.737 7.5625 77.9141 7.79688C78.0911 8.03125 78.3932 8.14844 78.8203 8.14844C79.237 8.14844 79.5339 8.03125 79.7109 7.79688C79.888 7.5625 79.9766 7.29167 79.9766 6.98438ZM90.2734 13.7109V14.8828H85.8047V13.7109H90.2734ZM86.1094 10.0469V18.5H84.6641V10.0469H86.1094ZM91.4453 10.0469V18.5H89.9922V10.0469H91.4453ZM100.117 17.625L102.469 10.0469H104.016L100.625 19.8047C100.547 20.013 100.443 20.237 100.312 20.4766C100.188 20.7214 100.026 20.9531 99.8281 21.1719C99.6302 21.3906 99.3906 21.5677 99.1094 21.7031C98.8333 21.8438 98.5026 21.9141 98.1172 21.9141C98.0026 21.9141 97.8568 21.8984 97.6797 21.8672C97.5026 21.8359 97.3776 21.8099 97.3047 21.7891L97.2969 20.6172C97.3385 20.6224 97.4036 20.6276 97.4922 20.6328C97.5859 20.6432 97.651 20.6484 97.6875 20.6484C98.0156 20.6484 98.2943 20.6042 98.5234 20.5156C98.7526 20.4323 98.9453 20.2891 99.1016 20.0859C99.263 19.888 99.401 19.6146 99.5156 19.2656L100.117 17.625ZM98.3906 10.0469L100.586 16.6094L100.961 18.1328L99.9219 18.6641L96.8125 10.0469H98.3906ZM106.766 11.6719V21.75H105.312V10.0469H106.641L106.766 11.6719ZM112.461 14.2031V14.3672C112.461 14.9818 112.388 15.5521 112.242 16.0781C112.096 16.599 111.883 17.0521 111.602 17.4375C111.326 17.8229 110.984 18.1224 110.578 18.3359C110.172 18.5495 109.706 18.6562 109.18 18.6562C108.643 18.6562 108.169 18.5677 107.758 18.3906C107.346 18.2135 106.997 17.9557 106.711 17.6172C106.424 17.2786 106.195 16.8724 106.023 16.3984C105.857 15.9245 105.742 15.3906 105.68 14.7969V13.9219C105.742 13.2969 105.859 12.737 106.031 12.2422C106.203 11.7474 106.43 11.3255 106.711 10.9766C106.997 10.6224 107.344 10.3542 107.75 10.1719C108.156 9.98438 108.625 9.89062 109.156 9.89062C109.688 9.89062 110.159 9.99479 110.57 10.2031C110.982 10.4062 111.328 10.6979 111.609 11.0781C111.891 11.4583 112.102 11.9141 112.242 12.4453C112.388 12.9714 112.461 13.5573 112.461 14.2031ZM111.008 14.3672V14.2031C111.008 13.7812 110.964 13.3854 110.875 13.0156C110.786 12.6406 110.648 12.3125 110.461 12.0312C110.279 11.7448 110.044 11.5208 109.758 11.3594C109.471 11.1927 109.13 11.1094 108.734 11.1094C108.37 11.1094 108.052 11.1719 107.781 11.2969C107.516 11.4219 107.289 11.5911 107.102 11.8047C106.914 12.013 106.76 12.2526 106.641 12.5234C106.526 12.7891 106.44 13.0651 106.383 13.3516V15.375C106.487 15.7396 106.633 16.0833 106.82 16.4062C107.008 16.724 107.258 16.9818 107.57 17.1797C107.883 17.3724 108.276 17.4688 108.75 17.4688C109.141 17.4688 109.477 17.388 109.758 17.2266C110.044 17.0599 110.279 16.8333 110.461 16.5469C110.648 16.2604 110.786 15.9323 110.875 15.5625C110.964 15.1875 111.008 14.7891 111.008 14.3672ZM113.922 14.3672V14.1875C113.922 13.5781 114.01 13.013 114.188 12.4922C114.365 11.9661 114.62 11.5104 114.953 11.125C115.286 10.7344 115.69 10.4323 116.164 10.2188C116.638 10 117.169 9.89062 117.758 9.89062C118.352 9.89062 118.885 10 119.359 10.2188C119.839 10.4323 120.245 10.7344 120.578 11.125C120.917 11.5104 121.174 11.9661 121.352 12.4922C121.529 13.013 121.617 13.5781 121.617 14.1875V14.3672C121.617 14.9766 121.529 15.5417 121.352 16.0625C121.174 16.5833 120.917 17.0391 120.578 17.4297C120.245 17.8151 119.841 18.1172 119.367 18.3359C118.898 18.5495 118.367 18.6562 117.773 18.6562C117.18 18.6562 116.646 18.5495 116.172 18.3359C115.698 18.1172 115.292 17.8151 114.953 17.4297C114.62 17.0391 114.365 16.5833 114.188 16.0625C114.01 15.5417 113.922 14.9766 113.922 14.3672ZM115.367 14.1875V14.3672C115.367 14.7891 115.417 15.1875 115.516 15.5625C115.615 15.9323 115.763 16.2604 115.961 16.5469C116.164 16.8333 116.417 17.0599 116.719 17.2266C117.021 17.388 117.372 17.4688 117.773 17.4688C118.169 17.4688 118.516 17.388 118.812 17.2266C119.115 17.0599 119.365 16.8333 119.562 16.5469C119.76 16.2604 119.909 15.9323 120.008 15.5625C120.112 15.1875 120.164 14.7891 120.164 14.3672V14.1875C120.164 13.7708 120.112 13.3776 120.008 13.0078C119.909 12.6328 119.758 12.3021 119.555 12.0156C119.357 11.724 119.107 11.4948 118.805 11.3281C118.508 11.1615 118.159 11.0781 117.758 11.0781C117.362 11.0781 117.013 11.1615 116.711 11.3281C116.414 11.4948 116.164 11.724 115.961 12.0156C115.763 12.3021 115.615 12.6328 115.516 13.0078C115.417 13.3776 115.367 13.7708 115.367 14.1875ZM125 10.0469V18.5H123.555V10.0469H125ZM130.547 10.0469L126.539 14.8906H124.516L124.297 13.625H125.953L128.789 10.0469H130.547ZM128.992 18.5L125.883 14.6719L126.812 13.625L130.828 18.5H128.992ZM133.648 16.2109L137.547 10.0469H139V18.5H137.547V12.3359L133.648 18.5H132.211V10.0469H133.648V16.2109Z" fill="#646464"/>
<defs>
<clipPath id="clip0_1054_407">
<rect width="26" height="26" fill="white"/>
</clipPath>
</defs>
</svg>
