<svg width="58" height="58" viewBox="0 0 58 58" fill="none" xmlns="http://www.w3.org/2000/svg">
<rect width="58" height="58" rx="29" fill="#F4F6F9"/>
<path d="M42.75 20.25H15.25C14.5596 20.25 14 20.8096 14 21.5V41.5C14 42.1904 14.5596 42.75 15.25 42.75H42.75C43.4404 42.75 44 42.1904 44 41.5V21.5C44 20.8096 43.4404 20.25 42.75 20.25Z" stroke="black" stroke-width="2" stroke-linecap="round" stroke-linejoin="round"/>
<path d="M35.25 20.25V17.75C35.25 17.087 34.9866 16.4511 34.5178 15.9822C34.0489 15.5134 33.413 15.25 32.75 15.25H25.25C24.587 15.25 23.9511 15.5134 23.4822 15.9822C23.0134 16.4511 22.75 17.087 22.75 17.75V20.25" stroke="black" stroke-width="2" stroke-linecap="round" stroke-linejoin="round"/>
<path d="M44 28.7344C39.4411 31.371 34.2664 32.7563 29 32.75C23.7326 32.7637 18.556 31.3779 14 28.7344" stroke="black" stroke-width="2" stroke-linecap="round" stroke-linejoin="round"/>
<path d="M27.125 27.75H30.875" stroke="black" stroke-width="2" stroke-linecap="round" stroke-linejoin="round"/>
</svg>
